<svg width="23" height="22" viewBox="0 0 23 22" fill="none" xmlns="http://www.w3.org/2000/svg">
<path d="M1.92644 0.789733C1.81031 0.278075 1.30139 -0.0425655 0.789733 0.0735618C0.278075 0.189689 -0.0425655 0.698609 0.0735618 1.21027L1.92644 0.789733ZM5.54237 16.5246L6.14849 15.7931L5.54237 16.5246ZM2.92659 9.66433L1.99831 9.86629L2.92659 9.66433ZM5.3709 16.3757L6.01047 15.6732L6.01047 15.6732L5.3709 16.3757ZM21.0344 10.1797L21.9627 10.3816L21.0344 10.1797ZM19.0048 16.0754L18.3073 15.4304L18.3073 15.4304L19.0048 16.0754ZM18.1952 16.7787L18.7346 17.5607L18.1952 16.7787ZM20.9609 5.99377L20.2763 6.65235L20.9609 5.99377ZM21.3057 6.47538L22.1482 6.03629L22.1482 6.03629L21.3057 6.47538ZM13.3911 9.5C12.8664 9.5 12.4411 9.92533 12.4411 10.45C12.4411 10.9747 12.8664 11.4 13.3911 11.4L13.3911 9.5ZM16.2505 12.65C15.7258 12.65 15.3005 13.0753 15.3005 13.6C15.3005 14.1247 15.7258 14.55 16.2505 14.55V12.65ZM20.9756 10.45L21.9039 10.6521L20.9756 10.45ZM2.00341 6.37105H17.6277V4.47105H2.00341V6.37105ZM12.5176 16.6289H12.0366V18.5289H12.5176V16.6289ZM3.85488 9.46237L2.9317 5.21909L1.07513 5.62301L1.99831 9.86629L3.85488 9.46237ZM2.92985 5.21078L1.92644 0.789733L0.0735618 1.21027L1.07698 5.63132L2.92985 5.21078ZM12.0366 16.6289C10.2713 16.6289 9.03703 16.6271 8.08185 16.5048C7.15723 16.3865 6.59823 16.1658 6.14849 15.7931L4.93626 17.2562C5.75897 17.9378 6.70649 18.2443 7.84056 18.3895C8.94408 18.5307 10.3207 18.5289 12.0366 18.5289V16.6289ZM1.99831 9.86629C2.39955 11.7106 2.71525 13.1676 3.09125 14.299C3.47287 15.4474 3.94832 16.3652 4.73132 17.0781L6.01047 15.6732C5.5662 15.2687 5.22517 14.6955 4.8943 13.6998C4.5578 12.6873 4.26499 11.3474 3.85488 9.46237L1.99831 9.86629ZM6.14849 15.7931C6.10173 15.7544 6.05571 15.7144 6.01047 15.6732L4.73132 17.0781C4.79832 17.1391 4.86665 17.1985 4.93626 17.2562L6.14849 15.7931ZM12.5176 18.5289C14.0022 18.5289 15.1933 18.5303 16.1559 18.4231C17.1423 18.3132 17.9792 18.0818 18.7346 17.5607L17.6558 15.9967C17.251 16.2759 16.7549 16.4446 15.9455 16.5348C15.1122 16.6276 14.0446 16.6289 12.5176 16.6289V18.5289ZM18.3073 15.4304C18.1078 15.6461 17.8892 15.8357 17.6558 15.9967L18.7346 17.5607C19.0855 17.3187 19.4098 17.0366 19.7023 16.7203L18.3073 15.4304ZM17.6277 6.37105C18.5823 6.37105 19.2022 6.37308 19.6568 6.43417C20.0864 6.49193 20.2115 6.585 20.2763 6.65235L21.6456 5.33519C21.1595 4.82983 20.5454 4.63653 19.9099 4.55111C19.2992 4.46903 18.5281 4.47105 17.6277 4.47105V6.37105ZM21.9627 10.3816C22.1741 9.40993 22.3509 8.60394 22.4186 7.95178C22.4874 7.28839 22.4624 6.63918 22.1482 6.03629L20.4633 6.91448C20.5262 7.03523 20.5818 7.24461 20.5287 7.75568C20.4745 8.27798 20.3271 8.96231 20.1062 9.97771L21.9627 10.3816ZM20.2763 6.65235C20.3475 6.72642 20.4111 6.81435 20.4633 6.91448L22.1482 6.03629C22.0145 5.7799 21.8458 5.54329 21.6456 5.33519L20.2763 6.65235ZM20.0631 12.65H16.2505V14.55H20.0631V12.65ZM20.9756 9.5L13.3911 9.5L13.3911 11.4L20.9756 11.4L20.9756 9.5ZM20.1062 9.97771C20.0863 10.0691 20.0667 10.1591 20.0474 10.2479L21.9039 10.6521C21.9232 10.5632 21.9428 10.473 21.9627 10.3816L20.1062 9.97771ZM20.0474 10.2479C19.7635 11.5516 19.5435 12.543 19.3137 13.3354L21.1384 13.8646C21.3898 12.9981 21.6236 11.9391 21.9039 10.6521L20.0474 10.2479ZM19.3137 13.3354C19.0038 14.4037 18.7048 15.0005 18.3073 15.4304L19.7023 16.7203C20.396 15.9701 20.7977 15.0394 21.1384 13.8646L19.3137 13.3354ZM20.0631 14.55H20.226V12.65H20.0631V14.55Z" fill="#2D264B"/>
<path d="M10.0301 20.8948C10.0301 21.5052 9.58087 22.0001 9.02675 22.0001C8.47264 22.0001 8.02344 21.5052 8.02344 20.8948C8.02344 20.2844 8.47264 19.7896 9.02675 19.7896C9.58087 19.7896 10.0301 20.2844 10.0301 20.8948Z" fill="#2D264B"/>
<path d="M16.05 20.8948C16.05 21.5052 15.6008 22.0001 15.0467 22.0001C14.4925 22.0001 14.0433 21.5052 14.0433 20.8948C14.0433 20.2844 14.4925 19.7896 15.0467 19.7896C15.6008 19.7896 16.05 20.2844 16.05 20.8948Z" fill="#2D264B"/>
</svg>
