<svg width="22" height="22" viewBox="0 0 22 22" fill="none" xmlns="http://www.w3.org/2000/svg">
<path fill-rule="evenodd" clip-rule="evenodd" d="M10.75 0C4.81294 0 0 4.81294 0 10.75C0 16.6871 4.81294 21.5 10.75 21.5C16.6871 21.5 21.5 16.6871 21.5 10.75C21.5 4.81294 16.6871 0 10.75 0ZM1.5 10.75C1.5 5.64137 5.64137 1.5 10.75 1.5C15.8586 1.5 20 5.64137 20 10.75C20 15.8586 15.8586 20 10.75 20C5.64137 20 1.5 15.8586 1.5 10.75Z" fill="#2D264B"/>
<path d="M7.75 10.75C7.75 11.3023 7.30228 11.75 6.75 11.75C6.19772 11.75 5.75 11.3023 5.75 10.75C5.75 10.1977 6.19772 9.75 6.75 9.75C7.30228 9.75 7.75 10.1977 7.75 10.75Z" fill="#2D264B"/>
<path d="M11.75 10.75C11.75 11.3023 11.3023 11.75 10.75 11.75C10.1977 11.75 9.75 11.3023 9.75 10.75C9.75 10.1977 10.1977 9.75 10.75 9.75C11.3023 9.75 11.75 10.1977 11.75 10.75Z" fill="#2D264B"/>
<path d="M15.75 10.75C15.75 11.3023 15.3023 11.75 14.75 11.75C14.1977 11.75 13.75 11.3023 13.75 10.75C13.75 10.1977 14.1977 9.75 14.75 9.75C15.3023 9.75 15.75 10.1977 15.75 10.75Z" fill="#2D264B"/>
</svg>
