<svg width="20" height="19" viewBox="0 0 20 19" fill="none" xmlns="http://www.w3.org/2000/svg">
<path d="M14.1665 1.99993C14.3854 1.78106 14.6452 1.60744 14.9312 1.48899C15.2171 1.37054 15.5236 1.30957 15.8332 1.30957C16.1427 1.30957 16.4492 1.37054 16.7352 1.48899C17.0211 1.60744 17.281 1.78106 17.4998 1.99993C17.7187 2.2188 17.8923 2.47863 18.0108 2.7646C18.1292 3.05057 18.1902 3.35706 18.1902 3.66659C18.1902 3.97612 18.1292 4.28262 18.0108 4.56859C17.8923 4.85455 17.7187 5.11439 17.4998 5.33326L6.24984 16.5833L1.6665 17.8333L2.9165 13.2499L14.1665 1.99993Z" stroke="#667085" stroke-width="1.66667" stroke-linecap="round" stroke-linejoin="round"/>
</svg>
