<svg width="28" height="28" viewBox="0 0 28 28" fill="none" xmlns="http://www.w3.org/2000/svg">
<path d="M18.177 5.81384e-06C19.384 -9.00255e-05 20.1192 -0.000148289 20.7534 0.100301C24.239 0.652356 26.9726 3.38601 27.5247 6.87156C27.6251 7.50576 27.6251 8.24099 27.625 9.44802L27.625 18.177C27.6251 19.384 27.6251 20.1193 27.5247 20.7535C26.9726 24.239 24.239 26.9727 20.7534 27.5247C20.1192 27.6252 19.384 27.6251 18.177 27.625L16.6458 27.625C14.8132 27.625 13.1192 27.0186 11.7577 25.9959C11.2885 25.6435 11.1939 24.9774 11.5463 24.5082C11.8987 24.0391 12.5647 23.9444 13.0339 24.2968C14.0401 25.0526 15.2892 25.5 16.6458 25.5H18.0625C19.4192 25.5 19.9738 25.4967 20.421 25.4259C22.9973 25.0178 25.0178 22.9973 25.4259 20.421C25.4967 19.9738 25.5 19.4192 25.5 18.0625L25.5 9.56251C25.5 8.20582 25.4967 7.65117 25.4259 7.20398C25.0178 4.62771 22.9973 2.60718 20.421 2.19914C19.9738 2.12831 19.4192 2.12501 18.0625 2.12501H16.6458C15.2892 2.12501 14.0401 2.57243 13.0339 3.3282C12.5647 3.68062 11.8987 3.58596 11.5463 3.11677C11.1939 2.64759 11.2885 1.98154 11.7577 1.62912C13.1192 0.606436 14.8132 1.1978e-05 16.6458 1.18935e-05L18.177 5.81384e-06Z" fill="#F47458"/>
<path d="M6.06903 7.31329C6.52884 6.94872 7.19713 7.02592 7.56171 7.48572C7.92628 7.94553 7.84908 8.61382 7.38928 8.9784L4.89174 10.9587C3.89437 11.7495 3.21153 12.2929 2.74764 12.75L20.8958 12.75C21.4826 12.75 21.9583 13.2257 21.9583 13.8125C21.9583 14.3993 21.4826 14.875 20.8958 14.875L2.74764 14.875C3.21153 15.3321 3.89437 15.8755 4.89174 16.6663L7.38928 18.6466C7.84909 19.0112 7.92629 19.6795 7.56171 20.1393C7.19713 20.5991 6.52884 20.6763 6.06903 20.3117L3.52077 18.2912C2.56807 17.5359 1.78194 16.9126 1.2219 16.3547C0.64719 15.7822 0.170774 15.1468 0.0414009 14.3348C0.0138397 14.1618 -9.53674e-06 13.9873 -9.53674e-06 13.8125C-9.53674e-06 13.6377 0.0138397 13.4632 0.0414009 13.2902C0.170774 12.4782 0.647189 11.8428 1.22189 11.2703C1.78193 10.7124 2.56806 10.0892 3.52074 9.33382L6.06903 7.31329Z" fill="#F47458"/>
</svg>
