<svg width="7" viewBox="0 0 11 12" fill="none" xmlns="http://www.w3.org/2000/svg">
<path d="M1.75 6.01834C1.75 5.60413 1.41421 5.26834 1 5.26834C0.585786 5.26834 0.25 5.60413 0.25 6.01834H1.75ZM9.25 6.01834C9.25 6.43256 9.58579 6.76834 10 6.76834C10.4142 6.76834 10.75 6.43256 10.75 6.01834H9.25ZM2.08019 3.05296L2.62374 3.56973L2.63896 3.55372L2.65321 3.53685L2.08019 3.05296ZM8.91981 8.98373L9.49283 9.46762L9.502 9.45676L9.51075 9.44556L8.91981 8.98373ZM2.31821 1.0033C2.32003 0.589091 1.98572 0.25183 1.57151 0.250007C1.1573 0.248184 0.820043 0.58249 0.81822 0.996699L2.31821 1.0033ZM1.56423 1.90591L0.814233 1.90261L0.814233 1.90261L1.56423 1.90591ZM3.22023 3.58477L3.22362 4.33476L3.22362 4.33476L3.22023 3.58477ZM4.11719 4.33072C4.5314 4.32885 4.86566 3.99155 4.86379 3.57734C4.86192 3.16313 4.52461 2.82886 4.1104 2.83074L4.11719 4.33072ZM1.74807 3.23666L1.15192 3.69174L1.15192 3.69174L1.74807 3.23666ZM1.9076 3.39839L1.44464 3.98845L1.44464 3.98845L1.9076 3.39839ZM8.64559 10.9967C8.64377 11.4109 8.97808 11.7482 9.39229 11.75C9.8065 11.7518 10.1438 11.4175 10.1456 11.0033L8.64559 10.9967ZM9.39957 10.0941L10.1496 10.0974L10.1496 10.0974L9.39957 10.0941ZM7.74357 8.41523L7.74018 7.66524L7.74018 7.66524L7.74357 8.41523ZM6.84661 7.66928C6.4324 7.67115 6.09814 8.00845 6.10001 8.42266C6.10188 8.83687 6.43919 9.17114 6.85339 9.16926L6.84661 7.66928ZM9.21573 8.76334L9.81188 8.30826L9.81188 8.30826L9.21573 8.76334ZM9.0562 8.60161L9.51916 8.01155L9.51916 8.01155L9.0562 8.60161ZM1.82328 3.32318L1.28976 3.85029L1.82328 3.32318ZM5.5 9.83047C3.43859 9.83047 1.75 8.13345 1.75 6.01834H0.25C0.25 8.94242 2.59084 11.3305 5.5 11.3305V9.83047ZM5.5 2.20621C7.56141 2.20621 9.25 3.90323 9.25 6.01834H10.75C10.75 3.09426 8.40916 0.706213 5.5 0.706213V2.20621ZM2.65321 3.53685C3.34347 2.71944 4.36356 2.20621 5.5 2.20621V0.706213C3.89927 0.706213 2.46757 1.43176 1.50717 2.56907L2.65321 3.53685ZM8.3468 8.49984C7.65653 9.31725 6.63644 9.83047 5.5 9.83047V11.3305C7.10073 11.3305 8.53243 10.6049 9.49283 9.46762L8.3468 8.49984ZM0.81822 0.996699L0.814233 1.90261L2.31422 1.90921L2.31821 1.0033L0.81822 0.996699ZM3.22362 4.33476L4.11719 4.33072L4.1104 2.83074L3.21683 2.83478L3.22362 4.33476ZM0.814233 1.90261C0.81272 2.24643 0.810205 2.56682 0.83854 2.82987C0.868428 3.10733 0.940077 3.41423 1.15192 3.69174L2.34423 2.78158C2.36745 2.81201 2.34559 2.81475 2.32991 2.66922C2.31268 2.50928 2.31255 2.28783 2.31422 1.90921L0.814233 1.90261ZM3.21683 2.83478C2.84266 2.83647 2.62627 2.83628 2.47061 2.81905C2.33074 2.80356 2.33786 2.78267 2.37055 2.80832L1.44464 3.98845C1.72106 4.20532 2.02819 4.27923 2.30555 4.30994C2.56713 4.3389 2.88519 4.3363 3.22362 4.33476L3.21683 2.83478ZM10.1456 11.0033L10.1496 10.0974L8.64958 10.0908L8.64559 10.9967L10.1456 11.0033ZM7.74018 7.66524L6.84661 7.66928L6.85339 9.16926L7.74697 9.16522L7.74018 7.66524ZM10.1496 10.0974C10.1511 9.75357 10.1536 9.43318 10.1253 9.17013C10.0954 8.89267 10.0237 8.58577 9.81188 8.30826L8.61957 9.21842C8.59635 9.18799 8.61821 9.18525 8.63389 9.33078C8.65112 9.49073 8.65125 9.71217 8.64958 10.0908L10.1496 10.0974ZM7.74697 9.16522C8.12114 9.16353 8.33753 9.16372 8.49319 9.18095C8.63306 9.19644 8.62595 9.21733 8.59325 9.19168L9.51916 8.01155C9.24274 7.79468 8.93561 7.72077 8.65825 7.69006C8.39667 7.6611 8.07861 7.66371 7.74018 7.66524L7.74697 9.16522ZM1.15192 3.69174C1.19448 3.7475 1.24052 3.80045 1.28976 3.85029L2.35681 2.79606C2.35238 2.79158 2.34817 2.78675 2.34423 2.78158L1.15192 3.69174ZM1.28976 3.85029C1.33837 3.89949 1.39009 3.94565 1.44464 3.98845L2.37055 2.80832C2.36577 2.80458 2.36118 2.80048 2.35681 2.79606L1.28976 3.85029ZM1.53664 2.53619L1.27973 2.80641L2.36683 3.83995L2.62374 3.56973L1.53664 2.53619ZM9.81188 8.30826C9.77498 8.25991 9.73546 8.21368 9.69352 8.16976L8.60875 9.20575C8.61253 9.20971 8.61615 9.21394 8.61957 9.21842L9.81188 8.30826ZM9.69352 8.16976C9.63932 8.113 9.58106 8.06012 9.51916 8.01155L8.59325 9.19168C8.59867 9.19593 8.60385 9.20062 8.60875 9.20575L9.69352 8.16976ZM9.51075 9.44556L9.74207 9.14959L8.56019 8.22591L8.32888 8.52189L9.51075 9.44556Z" fill="white"/>
</svg>
