<svg width="20" height="20" viewBox="0 0 20 20" fill="none" xmlns="http://www.w3.org/2000/svg">
<path d="M3.06107 18.0451L3.50191 17.4383L3.06107 18.0451ZM1.95491 16.9389L2.56168 16.4981L1.95491 16.9389ZM18.0451 16.9389L17.4383 16.4981L18.0451 16.9389ZM16.9389 18.0451L16.4981 17.4383L16.9389 18.0451ZM16.9389 1.95492L17.3798 1.34815L16.9389 1.95492ZM18.0451 3.06108L18.6518 2.62024L18.0451 3.06108ZM3.06107 1.95492L3.50191 2.56168L3.06107 1.95492ZM1.95491 3.06108L2.56168 3.50191L1.95491 3.06108ZM13 1.02893L13.0257 0.279369L13 1.02893ZM18.9711 7L19.7206 6.97432L18.9711 7ZM10.75 5.5C10.75 5.08579 10.4142 4.75 10 4.75C9.58579 4.75 9.25 5.08579 9.25 5.5H10.75ZM14.5327 10.828C14.8243 10.5338 14.8222 10.0589 14.528 9.76731C14.2338 9.47573 13.7589 9.47785 13.4673 9.77204L14.5327 10.828ZM12.6022 11.7104L13.1348 12.2383L13.1348 12.2383L12.6022 11.7104ZM7.39785 11.7104L7.93054 11.1824L7.93054 11.1824L7.39785 11.7104ZM6.53269 9.77204C6.24111 9.47785 5.76624 9.47573 5.47204 9.76731C5.17784 10.0589 5.17572 10.5338 5.46731 10.828L6.53269 9.77204ZM10.2507 13.4841L10.3455 14.2281L10.3455 14.2281L10.2507 13.4841ZM9.74933 13.4841L9.6545 14.2281L9.6545 14.2281L9.74933 13.4841ZM10 13.5L10 14.25L10 13.5ZM10 18.25C8.10843 18.25 6.74999 18.249 5.69804 18.135C4.66013 18.0225 4.00992 17.8074 3.50191 17.4383L2.62023 18.6518C3.42656 19.2377 4.37094 19.5 5.53648 19.6263C6.68798 19.751 8.14184 19.75 10 19.75V18.25ZM0.25 10C0.25 11.8582 0.248971 13.312 0.373728 14.4635C0.500006 15.6291 0.762324 16.5734 1.34815 17.3798L2.56168 16.4981C2.19259 15.9901 1.97745 15.3399 1.865 14.302C1.75103 13.25 1.75 11.8916 1.75 10H0.25ZM3.50191 17.4383C3.14111 17.1762 2.82382 16.8589 2.56168 16.4981L1.34815 17.3798C1.70281 17.8679 2.13209 18.2972 2.62023 18.6518L3.50191 17.4383ZM18.25 10C18.25 11.8916 18.249 13.25 18.135 14.302C18.0225 15.3399 17.8074 15.9901 17.4383 16.4981L18.6518 17.3798C19.2377 16.5734 19.5 15.6291 19.6263 14.4635C19.751 13.312 19.75 11.8582 19.75 10H18.25ZM10 19.75C11.8582 19.75 13.312 19.751 14.4635 19.6263C15.6291 19.5 16.5734 19.2377 17.3798 18.6518L16.4981 17.4383C15.9901 17.8074 15.3399 18.0225 14.302 18.135C13.25 18.249 11.8916 18.25 10 18.25V19.75ZM17.4383 16.4981C17.1762 16.8589 16.8589 17.1762 16.4981 17.4383L17.3798 18.6518C17.8679 18.2972 18.2972 17.8679 18.6518 17.3798L17.4383 16.4981ZM16.4981 2.56168C16.8589 2.82382 17.1762 3.14111 17.4383 3.50191L18.6518 2.62024C18.2972 2.13209 17.8679 1.70281 17.3798 1.34815L16.4981 2.56168ZM10 0.25C8.14184 0.25 6.68798 0.248971 5.53648 0.373728C4.37094 0.500006 3.42656 0.762324 2.62023 1.34815L3.50191 2.56168C4.00992 2.19259 4.66013 1.97745 5.69804 1.865C6.74999 1.75103 8.10843 1.75 10 1.75V0.25ZM1.75 10C1.75 8.10842 1.75103 6.74999 1.865 5.69804C1.97745 4.66013 2.19259 4.00992 2.56168 3.50191L1.34815 2.62024C0.762324 3.42656 0.500006 4.37094 0.373728 5.53647C0.248971 6.68797 0.25 8.14184 0.25 10H1.75ZM2.62023 1.34815C2.13209 1.70281 1.70281 2.13209 1.34815 2.62024L2.56168 3.50191C2.82382 3.14111 3.14111 2.82382 3.50191 2.56168L2.62023 1.34815ZM10 1.75C11.1731 1.75 12.1456 1.75009 12.9743 1.77849L13.0257 0.279369C12.1658 0.249906 11.1648 0.25 10 0.25V1.75ZM12.9743 1.77849C14.8292 1.84204 15.7925 2.04907 16.4981 2.56168L17.3798 1.34815C16.2761 0.546296 14.8991 0.343555 13.0257 0.279369L12.9743 1.77849ZM19.75 10C19.75 8.83522 19.7501 7.83424 19.7206 6.97432L18.2215 7.02568C18.2499 7.85445 18.25 8.82692 18.25 10H19.75ZM19.7206 6.97432C19.6564 5.10088 19.4537 3.7239 18.6518 2.62024L17.4383 3.50191C17.9509 4.20746 18.158 5.17075 18.2215 7.02568L19.7206 6.97432ZM13.4673 9.77204L12.0695 11.1824L13.1348 12.2383L14.5327 10.828L13.4673 9.77204ZM7.93054 11.1824L6.53269 9.77204L5.46731 10.828L6.86516 12.2383L7.93054 11.1824ZM12.0695 11.1824C11.4997 11.7573 11.1161 12.1427 10.7935 12.4018C10.4827 12.6514 10.302 12.7215 10.1558 12.7401L10.3455 14.2281C10.8787 14.1601 11.3163 13.9057 11.7328 13.5713C12.1373 13.2464 12.5899 12.7882 13.1348 12.2383L12.0695 11.1824ZM6.86516 12.2383C7.41012 12.7882 7.86265 13.2464 8.26724 13.5713C8.68366 13.9057 9.12131 14.1601 9.6545 14.2281L9.84416 12.7401C9.698 12.7215 9.51728 12.6514 9.20649 12.4018C8.88386 12.1427 8.50033 11.7573 7.93054 11.1824L6.86516 12.2383ZM10.1558 12.7401C10.1041 12.7467 10.052 12.75 10 12.75L10 14.25C10.1154 14.25 10.2308 14.2427 10.3455 14.2281L10.1558 12.7401ZM10 12.75C9.94795 12.75 9.8959 12.7467 9.84416 12.7401L9.6545 14.2281C9.76921 14.2427 9.88461 14.25 10 14.25L10 12.75ZM9.25 12.7V13.5H10.75V12.7H9.25ZM9.25 5.5C9.25 5.50275 9.25 5.50549 9.25 5.50823C9.25 5.51097 9.25 5.51371 9.25 5.51645C9.25 5.51918 9.25 5.52192 9.25 5.52465C9.25 5.52738 9.25 5.53011 9.25 5.53284C9.25 5.53557 9.25 5.53829 9.25 5.54101C9.25 5.54374 9.25 5.54646 9.25 5.54917C9.25 5.55189 9.25 5.55461 9.25 5.55732C9.25 5.56003 9.25 5.56274 9.25 5.56545C9.25 5.56816 9.25 5.57087 9.25 5.57357C9.25 5.57628 9.25 5.57898 9.25 5.58168C9.25 5.58438 9.25 5.58708 9.25 5.58977C9.25 5.59247 9.25 5.59516 9.25 5.59785C9.25 5.60054 9.25 5.60323 9.25 5.60591C9.25 5.6086 9.25 5.61128 9.25 5.61397C9.25 5.61665 9.25 5.61933 9.25 5.622C9.25 5.62468 9.25 5.62736 9.25 5.63003C9.25 5.6327 9.25 5.63537 9.25 5.63804C9.25 5.64071 9.25 5.64338 9.25 5.64604C9.25 5.6487 9.25 5.65137 9.25 5.65403C9.25 5.65669 9.25 5.65934 9.25 5.662C9.25 5.66465 9.25 5.66731 9.25 5.66996C9.25 5.67261 9.25 5.67526 9.25 5.6779C9.25 5.68055 9.25 5.6832 9.25 5.68584C9.25 5.68848 9.25 5.69112 9.25 5.69376C9.25 5.6964 9.25 5.69903 9.25 5.70167C9.25 5.7043 9.25 5.70693 9.25 5.70956C9.25 5.71219 9.25 5.71482 9.25 5.71744C9.25 5.72007 9.25 5.72269 9.25 5.72531C9.25 5.72793 9.25 5.73055 9.25 5.73317C9.25 5.73579 9.25 5.7384 9.25 5.74102C9.25 5.74363 9.25 5.74624 9.25 5.74885C9.25 5.75146 9.25 5.75406 9.25 5.75667C9.25 5.75927 9.25 5.76187 9.25 5.76447C9.25 5.76708 9.25 5.76967 9.25 5.77227C9.25 5.77487 9.25 5.77746 9.25 5.78005C9.25 5.78264 9.25 5.78523 9.25 5.78782C9.25 5.79041 9.25 5.793 9.25 5.79558C9.25 5.79817 9.25 5.80075 9.25 5.80333C9.25 5.80591 9.25 5.80849 9.25 5.81106C9.25 5.81364 9.25 5.81621 9.25 5.81878C9.25 5.82136 9.25 5.82393 9.25 5.82649C9.25 5.82906 9.25 5.83163 9.25 5.83419C9.25 5.83676 9.25 5.83932 9.25 5.84188C9.25 5.84444 9.25 5.847 9.25 5.84955C9.25 5.85211 9.25 5.85467 9.25 5.85722C9.25 5.85977 9.25 5.86232 9.25 5.86487C9.25 5.86742 9.25 5.86996 9.25 5.87251C9.25 5.87505 9.25 5.8776 9.25 5.88014C9.25 5.88268 9.25 5.88522 9.25 5.88775C9.25 5.89029 9.25 5.89283 9.25 5.89536C9.25 5.89789 9.25 5.90042 9.25 5.90295C9.25 5.90548 9.25 5.90801 9.25 5.91054C9.25 5.91306 9.25 5.91559 9.25 5.91811C9.25 5.92063 9.25 5.92315 9.25 5.92567C9.25 5.92819 9.25 5.9307 9.25 5.93322C9.25 5.93573 9.25 5.93825 9.25 5.94076C9.25 5.94327 9.25 5.94578 9.25 5.94828C9.25 5.95079 9.25 5.9533 9.25 5.9558C9.25 5.9583 9.25 5.9608 9.25 5.9633C9.25 5.9658 9.25 5.9683 9.25 5.9708C9.25 5.97329 9.25 5.97579 9.25 5.97828C9.25 5.98077 9.25 5.98327 9.25 5.98575C9.25 5.98824 9.25 5.99073 9.25 5.99322C9.25 5.9957 9.25 5.99819 9.25 6.00067C9.25 6.00315 9.25 6.00563 9.25 6.00811C9.25 6.01059 9.25 6.01306 9.25 6.01554C9.25 6.01801 9.25 6.02049 9.25 6.02296C9.25 6.02543 9.25 6.0279 9.25 6.03037C9.25 6.03284 9.25 6.0353 9.25 6.03777C9.25 6.04023 9.25 6.04269 9.25 6.04515C9.25 6.04762 9.25 6.05007 9.25 6.05253C9.25 6.05499 9.25 6.05745 9.25 6.0599C9.25 6.06235 9.25 6.06481 9.25 6.06726C9.25 6.06971 9.25 6.07216 9.25 6.07461C9.25 6.07705 9.25 6.0795 9.25 6.08194C9.25 6.08439 9.25 6.08683 9.25 6.08927C9.25 6.09171 9.25 6.09415 9.25 6.09659C9.25 6.09903 9.25 6.10146 9.25 6.1039C9.25 6.10633 9.25 6.10876 9.25 6.1112C9.25 6.11363 9.25 6.11606 9.25 6.11848C9.25 6.12091 9.25 6.12334 9.25 6.12576C9.25 6.12819 9.25 6.13061 9.25 6.13303C9.25 6.13545 9.25 6.13787 9.25 6.14029C9.25 6.14271 9.25 6.14512 9.25 6.14754C9.25 6.14995 9.25 6.15237 9.25 6.15478C9.25 6.15719 9.25 6.1596 9.25 6.16201C9.25 6.16442 9.25 6.16683 9.25 6.16923C9.25 6.17164 9.25 6.17404 9.25 6.17644C9.25 6.17885 9.25 6.18125 9.25 6.18365C9.25 6.18605 9.25 6.18844 9.25 6.19084C9.25 6.19324 9.25 6.19563 9.25 6.19802C9.25 6.20042 9.25 6.20281 9.25 6.2052C9.25 6.20759 9.25 6.20998 9.25 6.21237C9.25 6.21475 9.25 6.21714 9.25 6.21952C9.25 6.22191 9.25 6.22429 9.25 6.22667C9.25 6.22905 9.25 6.23143 9.25 6.23381C9.25 6.23619 9.25 6.23857 9.25 6.24094C9.25 6.24332 9.25 6.24569 9.25 6.24806C9.25 6.25044 9.25 6.25281 9.25 6.25518C9.25 6.25755 9.25 6.25991 9.25 6.26228C9.25 6.26465 9.25 6.26701 9.25 6.26938C9.25 6.27174 9.25 6.2741 9.25 6.27646C9.25 6.27882 9.25 6.28118 9.25 6.28354C9.25 6.2859 9.25 6.28826 9.25 6.29061C9.25 6.29297 9.25 6.29532 9.25 6.29767C9.25 6.30003 9.25 6.30238 9.25 6.30473C9.25 6.30708 9.25 6.30943 9.25 6.31177C9.25 6.31412 9.25 6.31647 9.25 6.31881C9.25 6.32115 9.25 6.3235 9.25 6.32584C9.25 6.32818 9.25 6.33052 9.25 6.33286C9.25 6.3352 9.25 6.33754 9.25 6.33987C9.25 6.34221 9.25 6.34454 9.25 6.34688C9.25 6.34921 9.25 6.35154 9.25 6.35387C9.25 6.3562 9.25 6.35853 9.25 6.36086C9.25 6.36319 9.25 6.36552 9.25 6.36784C9.25 6.37017 9.25 6.37249 9.25 6.37482C9.25 6.37714 9.25 6.37946 9.25 6.38178C9.25 6.3841 9.25 6.38642 9.25 6.38874C9.25 6.39106 9.25 6.39337 9.25 6.39569C9.25 6.398 9.25 6.40032 9.25 6.40263C9.25 6.40494 9.25 6.40726 9.25 6.40957C9.25 6.41188 9.25 6.41419 9.25 6.41649C9.25 6.4188 9.25 6.42111 9.25 6.42341C9.25 6.42572 9.25 6.42802 9.25 6.43033C9.25 6.43263 9.25 6.43493 9.25 6.43723C9.25 6.43953 9.25 6.44183 9.25 6.44413C9.25 6.44643 9.25 6.44873 9.25 6.45102C9.25 6.45332 9.25 6.45561 9.25 6.45791C9.25 6.4602 9.25 6.46249 9.25 6.46478C9.25 6.46707 9.25 6.46936 9.25 6.47165C9.25 6.47394 9.25 6.47623 9.25 6.47852C9.25 6.4808 9.25 6.48309 9.25 6.48537C9.25 6.48766 9.25 6.48994 9.25 6.49222C9.25 6.4945 9.25 6.49678 9.25 6.49906C9.25 6.50134 9.25 6.50362 9.25 6.5059C9.25 6.50818 9.25 6.51045 9.25 6.51273C9.25 6.515 9.25 6.51728 9.25 6.51955C9.25 6.52182 9.25 6.5241 9.25 6.52637C9.25 6.52864 9.25 6.53091 9.25 6.53318C9.25 6.53544 9.25 6.53771 9.25 6.53998C9.25 6.54224 9.25 6.54451 9.25 6.54677C9.25 6.54904 9.25 6.5513 9.25 6.55356C9.25 6.55583 9.25 6.55809 9.25 6.56035C9.25 6.56261 9.25 6.56487 9.25 6.56713C9.25 6.56938 9.25 6.57164 9.25 6.5739C9.25 6.57615 9.25 6.57841 9.25 6.58066C9.25 6.58292 9.25 6.58517 9.25 6.58742C9.25 6.58967 9.25 6.59192 9.25 6.59417C9.25 6.59642 9.25 6.59867 9.25 6.60092C9.25 6.60317 9.25 6.60542 9.25 6.60766C9.25 6.60991 9.25 6.61215 9.25 6.6144C9.25 6.61664 9.25 6.61889 9.25 6.62113C9.25 6.62337 9.25 6.62561 9.25 6.62785C9.25 6.63009 9.25 6.63233 9.25 6.63457C9.25 6.63681 9.25 6.63905 9.25 6.64128C9.25 6.64352 9.25 6.64576 9.25 6.64799C9.25 6.65022 9.25 6.65246 9.25 6.65469C9.25 6.65692 9.25 6.65916 9.25 6.66139C9.25 6.66362 9.25 6.66585 9.25 6.66808C9.25 6.67031 9.25 6.67254 9.25 6.67476C9.25 6.67699 9.25 6.67922 9.25 6.68144C9.25 6.68367 9.25 6.68589 9.25 6.68812C9.25 6.69034 9.25 6.69256 9.25 6.69479C9.25 6.69701 9.25 6.69923 9.25 6.70145C9.25 6.70367 9.25 6.70589 9.25 6.70811C9.25 6.71033 9.25 6.71255 9.25 6.71476C9.25 6.71698 9.25 6.7192 9.25 6.72141C9.25 6.72363 9.25 6.72584 9.25 6.72806C9.25 6.73027 9.25 6.73249 9.25 6.7347C9.25 6.73691 9.25 6.73912 9.25 6.74133C9.25 6.74354 9.25 6.74575 9.25 6.74796C9.25 6.75017 9.25 6.75238 9.25 6.75459C9.25 6.7568 9.25 6.759 9.25 6.76121C9.25 6.76341 9.25 6.76562 9.25 6.76782C9.25 6.77003 9.25 6.77223 9.25 6.77444C9.25 6.77664 9.25 6.77884 9.25 6.78104C9.25 6.78324 9.25 6.78545 9.25 6.78765C9.25 6.78985 9.25 6.79204 9.25 6.79424C9.25 6.79644 9.25 6.79864 9.25 6.80084C9.25 6.80303 9.25 6.80523 9.25 6.80743C9.25 6.80962 9.25 6.81182 9.25 6.81401C9.25 6.81621 9.25 6.8184 9.25 6.82059C9.25 6.82279 9.25 6.82498 9.25 6.82717C9.25 6.82936 9.25 6.83155 9.25 6.83374C9.25 6.83593 9.25 6.83812 9.25 6.84031C9.25 6.8425 9.25 6.84469 9.25 6.84688C9.25 6.84907 9.25 6.85125 9.25 6.85344C9.25 6.85563 9.25 6.85781 9.25 6.86C9.25 6.86218 9.25 6.86437 9.25 6.86655C9.25 6.86874 9.25 6.87092 9.25 6.8731C9.25 6.87528 9.25 6.87747 9.25 6.87965C9.25 6.88183 9.25 6.88401 9.25 6.88619C9.25 6.88837 9.25 6.89055 9.25 6.89273C9.25 6.89491 9.25 6.89709 9.25 6.89927C9.25 6.90144 9.25 6.90362 9.25 6.9058C9.25 6.90798 9.25 6.91015 9.25 6.91233C9.25 6.9145 9.25 6.91668 9.25 6.91885C9.25 6.92103 9.25 6.9232 9.25 6.92538C9.25 6.92755 9.25 6.92972 9.25 6.9319C9.25 6.93407 9.25 6.93624 9.25 6.93841C9.25 6.94058 9.25 6.94275 9.25 6.94493C9.25 6.9471 9.25 6.94927 9.25 6.95144C9.25 6.9536 9.25 6.95577 9.25 6.95794C9.25 6.96011 9.25 6.96228 9.25 6.96445C9.25 6.96661 9.25 6.96878 9.25 6.97095C9.25 6.97311 9.25 6.97528 9.25 6.97745C9.25 6.97961 9.25 6.98178 9.25 6.98394C9.25 6.98611 9.25 6.98827 9.25 6.99044C9.25 6.9926 9.25 6.99476 9.25 6.99693C9.25 6.99909 9.25 7.00125 9.25 7.00341C9.25 7.00558 9.25 7.00774 9.25 7.0099C9.25 7.01206 9.25 7.01422 9.25 7.01638C9.25 7.01854 9.25 7.0207 9.25 7.02286C9.25 7.02502 9.25 7.02718 9.25 7.02934C9.25 7.0315 9.25 7.03366 9.25 7.03582C9.25 7.03797 9.25 7.04013 9.25 7.04229C9.25 7.04445 9.25 7.0466 9.25 7.04876C9.25 7.05092 9.25 7.05307 9.25 7.05523C9.25 7.05738 9.25 7.05954 9.25 7.0617C9.25 7.06385 9.25 7.06601 9.25 7.06816C9.25 7.07032 9.25 7.07247 9.25 7.07462C9.25 7.07678 9.25 7.07893 9.25 7.08108C9.25 7.08324 9.25 7.08539 9.25 7.08754C9.25 7.0897 9.25 7.09185 9.25 7.094C9.25 7.09615 9.25 7.0983 9.25 7.10046C9.25 7.10261 9.25 7.10476 9.25 7.10691C9.25 7.10906 9.25 7.11121 9.25 7.11336C9.25 7.11551 9.25 7.11766 9.25 7.11981C9.25 7.12196 9.25 7.12411 9.25 7.12626C9.25 7.12841 9.25 7.13056 9.25 7.13271C9.25 7.13486 9.25 7.13701 9.25 7.13915C9.25 7.1413 9.25 7.14345 9.25 7.1456C9.25 7.14775 9.25 7.1499 9.25 7.15204C9.25 7.15419 9.25 7.15634 9.25 7.15848C9.25 7.16063 9.25 7.16278 9.25 7.16493C9.25 7.16707 9.25 7.16922 9.25 7.17137C9.25 7.17351 9.25 7.17566 9.25 7.1778C9.25 7.17995 9.25 7.1821 9.25 7.18424C9.25 7.18639 9.25 7.18853 9.25 7.19068C9.25 7.19282 9.25 7.19497 9.25 7.19711C9.25 7.19926 9.25 7.2014 9.25 7.20355C9.25 7.20569 9.25 7.20784 9.25 7.20998C9.25 7.21213 9.25 7.21427 9.25 7.21642C9.25 7.21856 9.25 7.2207 9.25 7.22285C9.25 7.22499 9.25 7.22714 9.25 7.22928C9.25 7.23142 9.25 7.23357 9.25 7.23571C9.25 7.23785 9.25 7.24 9.25 7.24214C9.25 7.24428 9.25 7.24643 9.25 7.24857C9.25 7.25071 9.25 7.25286 9.25 7.255C9.25 7.25714 9.25 7.25929 9.25 7.26143C9.25 7.26357 9.25 7.26572 9.25 7.26786C9.25 7.27 9.25 7.27214 9.25 7.27429C9.25 7.27643 9.25 7.27857 9.25 7.28072C9.25 7.28286 9.25 7.285 9.25 7.28714C9.25 7.28929 9.25 7.29143 9.25 7.29357C9.25 7.29571 9.25 7.29786 9.25 7.3C9.25 7.30214 9.25 7.30429 9.25 7.30643C9.25 7.30857 9.25 7.31071 9.25 7.31286C9.25 7.315 9.25 7.31714 9.25 7.31928C9.25 7.32143 9.25 7.32357 9.25 7.32571C9.25 7.32786 9.25 7.33 9.25 7.33214C9.25 7.33428 9.25 7.33643 9.25 7.33857C9.25 7.34071 9.25 7.34286 9.25 7.345C9.25 7.34714 9.25 7.34929 9.25 7.35143C9.25 7.35357 9.25 7.35572 9.25 7.35786C9.25 7.36 9.25 7.36215 9.25 7.36429C9.25 7.36643 9.25 7.36858 9.25 7.37072C9.25 7.37286 9.25 7.37501 9.25 7.37715C9.25 7.3793 9.25 7.38144 9.25 7.38359C9.25 7.38573 9.25 7.38787 9.25 7.39002C9.25 7.39216 9.25 7.39431 9.25 7.39645C9.25 7.3986 9.25 7.40074 9.25 7.40289C9.25 7.40503 9.25 7.40718 9.25 7.40932C9.25 7.41147 9.25 7.41361 9.25 7.41576C9.25 7.4179 9.25 7.42005 9.25 7.4222C9.25 7.42434 9.25 7.42649 9.25 7.42864C9.25 7.43078 9.25 7.43293 9.25 7.43507C9.25 7.43722 9.25 7.43937 9.25 7.44152C9.25 7.44366 9.25 7.44581 9.25 7.44796C9.25 7.45011 9.25 7.45225 9.25 7.4544C9.25 7.45655 9.25 7.4587 9.25 7.46085C9.25 7.46299 9.25 7.46514 9.25 7.46729C9.25 7.46944 9.25 7.47159 9.25 7.47374C9.25 7.47589 9.25 7.47804 9.25 7.48019C9.25 7.48234 9.25 7.48449 9.25 7.48664C9.25 7.48879 9.25 7.49094 9.25 7.49309C9.25 7.49524 9.25 7.49739 9.25 7.49954C9.25 7.5017 9.25 7.50385 9.25 7.506C9.25 7.50815 9.25 7.5103 9.25 7.51246C9.25 7.51461 9.25 7.51676 9.25 7.51892C9.25 7.52107 9.25 7.52322 9.25 7.52538C9.25 7.52753 9.25 7.52969 9.25 7.53184C9.25 7.53399 9.25 7.53615 9.25 7.5383C9.25 7.54046 9.25 7.54262 9.25 7.54477C9.25 7.54693 9.25 7.54908 9.25 7.55124C9.25 7.5534 9.25 7.55555 9.25 7.55771C9.25 7.55987 9.25 7.56203 9.25 7.56419C9.25 7.56634 9.25 7.5685 9.25 7.57066C9.25 7.57282 9.25 7.57498 9.25 7.57714C9.25 7.5793 9.25 7.58146 9.25 7.58362C9.25 7.58578 9.25 7.58794 9.25 7.5901C9.25 7.59226 9.25 7.59442 9.25 7.59659C9.25 7.59875 9.25 7.60091 9.25 7.60307C9.25 7.60524 9.25 7.6074 9.25 7.60957C9.25 7.61173 9.25 7.61389 9.25 7.61606C9.25 7.61822 9.25 7.62039 9.25 7.62255C9.25 7.62472 9.25 7.62689 9.25 7.62905C9.25 7.63122 9.25 7.63339 9.25 7.63555C9.25 7.63772 9.25 7.63989 9.25 7.64206C9.25 7.64423 9.25 7.6464 9.25 7.64856C9.25 7.65073 9.25 7.6529 9.25 7.65508C9.25 7.65725 9.25 7.65942 9.25 7.66159C9.25 7.66376 9.25 7.66593 9.25 7.6681C9.25 7.67028 9.25 7.67245 9.25 7.67462C9.25 7.6768 9.25 7.67897 9.25 7.68115C9.25 7.68332 9.25 7.6855 9.25 7.68767C9.25 7.68985 9.25 7.69202 9.25 7.6942C9.25 7.69638 9.25 7.69856 9.25 7.70073C9.25 7.70291 9.25 7.70509 9.25 7.70727C9.25 7.70945 9.25 7.71163 9.25 7.71381C9.25 7.71599 9.25 7.71817 9.25 7.72035C9.25 7.72253 9.25 7.72472 9.25 7.7269C9.25 7.72908 9.25 7.73126 9.25 7.73345C9.25 7.73563 9.25 7.73782 9.25 7.74C9.25 7.74219 9.25 7.74437 9.25 7.74656C9.25 7.74875 9.25 7.75093 9.25 7.75312C9.25 7.75531 9.25 7.7575 9.25 7.75969C9.25 7.76188 9.25 7.76407 9.25 7.76626C9.25 7.76845 9.25 7.77064 9.25 7.77283C9.25 7.77502 9.25 7.77721 9.25 7.77941C9.25 7.7816 9.25 7.78379 9.25 7.78599C9.25 7.78818 9.25 7.79038 9.25 7.79257C9.25 7.79477 9.25 7.79697 9.25 7.79916C9.25 7.80136 9.25 7.80356 9.25 7.80576C9.25 7.80796 9.25 7.81016 9.25 7.81236C9.25 7.81456 9.25 7.81676 9.25 7.81896C9.25 7.82116 9.25 7.82336 9.25 7.82556C9.25 7.82777 9.25 7.82997 9.25 7.83218C9.25 7.83438 9.25 7.83659 9.25 7.83879C9.25 7.841 9.25 7.84321 9.25 7.84541C9.25 7.84762 9.25 7.84983 9.25 7.85204C9.25 7.85425 9.25 7.85646 9.25 7.85867C9.25 7.86088 9.25 7.86309 9.25 7.8653C9.25 7.86751 9.25 7.86973 9.25 7.87194C9.25 7.87416 9.25 7.87637 9.25 7.87859C9.25 7.8808 9.25 7.88302 9.25 7.88524C9.25 7.88745 9.25 7.88967 9.25 7.89189C9.25 7.89411 9.25 7.89633 9.25 7.89855C9.25 7.90077 9.25 7.90299 9.25 7.90521C9.25 7.90744 9.25 7.90966 9.25 7.91188C9.25 7.91411 9.25 7.91633 9.25 7.91856C9.25 7.92078 9.25 7.92301 9.25 7.92524C9.25 7.92746 9.25 7.92969 9.25 7.93192C9.25 7.93415 9.25 7.93638 9.25 7.93861C9.25 7.94084 9.25 7.94308 9.25 7.94531C9.25 7.94754 9.25 7.94978 9.25 7.95201C9.25 7.95425 9.25 7.95648 9.25 7.95872C9.25 7.96095 9.25 7.96319 9.25 7.96543C9.25 7.96767 9.25 7.96991 9.25 7.97215C9.25 7.97439 9.25 7.97663 9.25 7.97887C9.25 7.98111 9.25 7.98336 9.25 7.9856C9.25 7.98785 9.25 7.99009 9.25 7.99234C9.25 7.99458 9.25 7.99683 9.25 7.99908C9.25 8.00133 9.25 8.00358 9.25 8.00583C9.25 8.00808 9.25 8.01033 9.25 8.01258C9.25 8.01483 9.25 8.01708 9.25 8.01934C9.25 8.02159 9.25 8.02385 9.25 8.0261C9.25 8.02836 9.25 8.03062 9.25 8.03287C9.25 8.03513 9.25 8.03739 9.25 8.03965C9.25 8.04191 9.25 8.04417 9.25 8.04644C9.25 8.0487 9.25 8.05096 9.25 8.05323C9.25 8.05549 9.25 8.05776 9.25 8.06002C9.25 8.06229 9.25 8.06456 9.25 8.06682C9.25 8.06909 9.25 8.07136 9.25 8.07363C9.25 8.0759 9.25 8.07818 9.25 8.08045C9.25 8.08272 9.25 8.085 9.25 8.08727C9.25 8.08955 9.25 8.09182 9.25 8.0941C9.25 8.09638 9.25 8.09866 9.25 8.10094C9.25 8.10322 9.25 8.1055 9.25 8.10778C9.25 8.11006 9.25 8.11234 9.25 8.11463C9.25 8.11691 9.25 8.1192 9.25 8.12148C9.25 8.12377 9.25 8.12606 9.25 8.12835C9.25 8.13064 9.25 8.13293 9.25 8.13522C9.25 8.13751 9.25 8.1398 9.25 8.14209C9.25 8.14439 9.25 8.14668 9.25 8.14898C9.25 8.15127 9.25 8.15357 9.25 8.15587C9.25 8.15817 9.25 8.16047 9.25 8.16277C9.25 8.16507 9.25 8.16737 9.25 8.16967C9.25 8.17198 9.25 8.17428 9.25 8.17659C9.25 8.17889 9.25 8.1812 9.25 8.18351C9.25 8.18581 9.25 8.18812 9.25 8.19043C9.25 8.19274 9.25 8.19506 9.25 8.19737C9.25 8.19968 9.25 8.202 9.25 8.20431C9.25 8.20663 9.25 8.20894 9.25 8.21126C9.25 8.21358 9.25 8.2159 9.25 8.21822C9.25 8.22054 9.25 8.22286 9.25 8.22518C9.25 8.22751 9.25 8.22983 9.25 8.23216C9.25 8.23448 9.25 8.23681 9.25 8.23914C9.25 8.24147 9.25 8.2438 9.25 8.24613C9.25 8.24846 9.25 8.25079 9.25 8.25312C9.25 8.25546 9.25 8.25779 9.25 8.26013C9.25 8.26246 9.25 8.2648 9.25 8.26714C9.25 8.26948 9.25 8.27182 9.25 8.27416C9.25 8.2765 9.25 8.27885 9.25 8.28119C9.25 8.28354 9.25 8.28588 9.25 8.28823C9.25 8.29057 9.25 8.29292 9.25 8.29527C9.25 8.29762 9.25 8.29997 9.25 8.30233C9.25 8.30468 9.25 8.30703 9.25 8.30939C9.25 8.31174 9.25 8.3141 9.25 8.31646C9.25 8.31882 9.25 8.32118 9.25 8.32354C9.25 8.3259 9.25 8.32826 9.25 8.33062C9.25 8.33299 9.25 8.33535 9.25 8.33772C9.25 8.34009 9.25 8.34245 9.25 8.34482C9.25 8.34719 9.25 8.34956 9.25 8.35194C9.25 8.35431 9.25 8.35668 9.25 8.35906C9.25 8.36143 9.25 8.36381 9.25 8.36619C9.25 8.36857 9.25 8.37095 9.25 8.37333C9.25 8.37571 9.25 8.37809 9.25 8.38048C9.25 8.38286 9.25 8.38525 9.25 8.38763C9.25 8.39002 9.25 8.39241 9.25 8.3948C9.25 8.39719 9.25 8.39958 9.25 8.40198C9.25 8.40437 9.25 8.40676 9.25 8.40916C9.25 8.41156 9.25 8.41395 9.25 8.41635C9.25 8.41875 9.25 8.42115 9.25 8.42356C9.25 8.42596 9.25 8.42836 9.25 8.43077C9.25 8.43317 9.25 8.43558 9.25 8.43799C9.25 8.4404 9.25 8.44281 9.25 8.44522C9.25 8.44763 9.25 8.45005 9.25 8.45246C9.25 8.45488 9.25 8.45729 9.25 8.45971C9.25 8.46213 9.25 8.46455 9.25 8.46697C9.25 8.46939 9.25 8.47181 9.25 8.47424C9.25 8.47666 9.25 8.47909 9.25 8.48152C9.25 8.48394 9.25 8.48637 9.25 8.48881C9.25 8.49124 9.25 8.49367 9.25 8.4961C9.25 8.49854 9.25 8.50097 9.25 8.50341C9.25 8.50585 9.25 8.50829 9.25 8.51073C9.25 8.51317 9.25 8.51561 9.25 8.51806C9.25 8.5205 9.25 8.52295 9.25 8.52539C9.25 8.52784 9.25 8.53029 9.25 8.53274C9.25 8.53519 9.25 8.53765 9.25 8.5401C9.25 8.54255 9.25 8.54501 9.25 8.54747C9.25 8.54993 9.25 8.55238 9.25 8.55485C9.25 8.55731 9.25 8.55977 9.25 8.56223C9.25 8.5647 9.25 8.56717 9.25 8.56963C9.25 8.5721 9.25 8.57457 9.25 8.57704C9.25 8.57951 9.25 8.58199 9.25 8.58446C9.25 8.58694 9.25 8.58941 9.25 8.59189C9.25 8.59437 9.25 8.59685 9.25 8.59933C9.25 8.60181 9.25 8.6043 9.25 8.60678C9.25 8.60927 9.25 8.61176 9.25 8.61425C9.25 8.61673 9.25 8.61923 9.25 8.62172C9.25 8.62421 9.25 8.62671 9.25 8.6292C9.25 8.6317 9.25 8.6342 9.25 8.6367C9.25 8.6392 9.25 8.6417 9.25 8.6442C9.25 8.6467 9.25 8.64921 9.25 8.65172C9.25 8.65422 9.25 8.65673 9.25 8.65924C9.25 8.66176 9.25 8.66427 9.25 8.66678C9.25 8.6693 9.25 8.67181 9.25 8.67433C9.25 8.67685 9.25 8.67937 9.25 8.68189C9.25 8.68441 9.25 8.68694 9.25 8.68946C9.25 8.69199 9.25 8.69452 9.25 8.69705C9.25 8.69958 9.25 8.70211 9.25 8.70464C9.25 8.70717 9.25 8.70971 9.25 8.71225C9.25 8.71478 9.25 8.71732 9.25 8.71986C9.25 8.7224 9.25 8.72495 9.25 8.72749C9.25 8.73004 9.25 8.73258 9.25 8.73513C9.25 8.73768 9.25 8.74023 9.25 8.74278C9.25 8.74533 9.25 8.74789 9.25 8.75045C9.25 8.753 9.25 8.75556 9.25 8.75812C9.25 8.76068 9.25 8.76324 9.25 8.76581C9.25 8.76837 9.25 8.77094 9.25 8.77351C9.25 8.77607 9.25 8.77864 9.25 8.78122C9.25 8.78379 9.25 8.78636 9.25 8.78894C9.25 8.79151 9.25 8.79409 9.25 8.79667C9.25 8.79925 9.25 8.80183 9.25 8.80442C9.25 8.807 9.25 8.80959 9.25 8.81218C9.25 8.81477 9.25 8.81736 9.25 8.81995C9.25 8.82254 9.25 8.82513 9.25 8.82773C9.25 8.83033 9.25 8.83293 9.25 8.83553C9.25 8.83813 9.25 8.84073 9.25 8.84333C9.25 8.84594 9.25 8.84854 9.25 8.85115C9.25 8.85376 9.25 8.85637 9.25 8.85898C9.25 8.8616 9.25 8.86421 9.25 8.86683C9.25 8.86945 9.25 8.87207 9.25 8.87469C9.25 8.87731 9.25 8.87993 9.25 8.88256C9.25 8.88518 9.25 8.88781 9.25 8.89044C9.25 8.89307 9.25 8.8957 9.25 8.89833C9.25 8.90097 9.25 8.9036 9.25 8.90624C9.25 8.90888 9.25 8.91152 9.25 8.91416C9.25 8.9168 9.25 8.91945 9.25 8.9221C9.25 8.92474 9.25 8.92739 9.25 8.93004C9.25 8.93269 9.25 8.93535 9.25 8.938C9.25 8.94066 9.25 8.94331 9.25 8.94597C9.25 8.94863 9.25 8.9513 9.25 8.95396C9.25 8.95662 9.25 8.95929 9.25 8.96196C9.25 8.96463 9.25 8.9673 9.25 8.96997C9.25 8.97264 9.25 8.97532 9.25 8.978C9.25 8.98067 9.25 8.98335 9.25 8.98603C9.25 8.98872 9.25 8.9914 9.25 8.99409C9.25 8.99677 9.25 8.99946 9.25 9.00215C9.25 9.00484 9.25 9.00753 9.25 9.01023C9.25 9.01292 9.25 9.01562 9.25 9.01832C9.25 9.02102 9.25 9.02372 9.25 9.02643C9.25 9.02913 9.25 9.03184 9.25 9.03455C9.25 9.03726 9.25 9.03997 9.25 9.04268C9.25 9.04539 9.25 9.04811 9.25 9.05083C9.25 9.05355 9.25 9.05627 9.25 9.05899C9.25 9.06171 9.25 9.06444 9.25 9.06716C9.25 9.06989 9.25 9.07262 9.25 9.07535C9.25 9.07808 9.25 9.08082 9.25 9.08355C9.25 9.08629 9.25 9.08903 9.25 9.09177C9.25 9.09451 9.25 9.09725 9.25 9.1H10.75C10.75 9.09725 10.75 9.09451 10.75 9.09177C10.75 9.08903 10.75 9.08629 10.75 9.08355C10.75 9.08082 10.75 9.07808 10.75 9.07535C10.75 9.07262 10.75 9.06989 10.75 9.06716C10.75 9.06444 10.75 9.06171 10.75 9.05899C10.75 9.05627 10.75 9.05355 10.75 9.05083C10.75 9.04811 10.75 9.04539 10.75 9.04268C10.75 9.03997 10.75 9.03726 10.75 9.03455C10.75 9.03184 10.75 9.02913 10.75 9.02643C10.75 9.02372 10.75 9.02102 10.75 9.01832C10.75 9.01562 10.75 9.01292 10.75 9.01023C10.75 9.00753 10.75 9.00484 10.75 9.00215C10.75 8.99946 10.75 8.99677 10.75 8.99409C10.75 8.9914 10.75 8.98872 10.75 8.98603C10.75 8.98335 10.75 8.98067 10.75 8.978C10.75 8.97532 10.75 8.97264 10.75 8.96997C10.75 8.9673 10.75 8.96463 10.75 8.96196C10.75 8.95929 10.75 8.95662 10.75 8.95396C10.75 8.9513 10.75 8.94863 10.75 8.94597C10.75 8.94331 10.75 8.94066 10.75 8.938C10.75 8.93535 10.75 8.93269 10.75 8.93004C10.75 8.92739 10.75 8.92474 10.75 8.9221C10.75 8.91945 10.75 8.9168 10.75 8.91416C10.75 8.91152 10.75 8.90888 10.75 8.90624C10.75 8.9036 10.75 8.90097 10.75 8.89833C10.75 8.8957 10.75 8.89307 10.75 8.89044C10.75 8.88781 10.75 8.88518 10.75 8.88256C10.75 8.87993 10.75 8.87731 10.75 8.87469C10.75 8.87207 10.75 8.86945 10.75 8.86683C10.75 8.86421 10.75 8.8616 10.75 8.85898C10.75 8.85637 10.75 8.85376 10.75 8.85115C10.75 8.84854 10.75 8.84594 10.75 8.84333C10.75 8.84073 10.75 8.83813 10.75 8.83553C10.75 8.83293 10.75 8.83033 10.75 8.82773C10.75 8.82513 10.75 8.82254 10.75 8.81995C10.75 8.81736 10.75 8.81477 10.75 8.81218C10.75 8.80959 10.75 8.807 10.75 8.80442C10.75 8.80183 10.75 8.79925 10.75 8.79667C10.75 8.79409 10.75 8.79151 10.75 8.78894C10.75 8.78636 10.75 8.78379 10.75 8.78122C10.75 8.77864 10.75 8.77607 10.75 8.77351C10.75 8.77094 10.75 8.76837 10.75 8.76581C10.75 8.76324 10.75 8.76068 10.75 8.75812C10.75 8.75556 10.75 8.753 10.75 8.75045C10.75 8.74789 10.75 8.74533 10.75 8.74278C10.75 8.74023 10.75 8.73768 10.75 8.73513C10.75 8.73258 10.75 8.73004 10.75 8.72749C10.75 8.72495 10.75 8.7224 10.75 8.71986C10.75 8.71732 10.75 8.71478 10.75 8.71225C10.75 8.70971 10.75 8.70717 10.75 8.70464C10.75 8.70211 10.75 8.69958 10.75 8.69705C10.75 8.69452 10.75 8.69199 10.75 8.68946C10.75 8.68694 10.75 8.68441 10.75 8.68189C10.75 8.67937 10.75 8.67685 10.75 8.67433C10.75 8.67181 10.75 8.6693 10.75 8.66678C10.75 8.66427 10.75 8.66176 10.75 8.65924C10.75 8.65673 10.75 8.65422 10.75 8.65172C10.75 8.64921 10.75 8.6467 10.75 8.6442C10.75 8.6417 10.75 8.6392 10.75 8.6367C10.75 8.6342 10.75 8.6317 10.75 8.6292C10.75 8.62671 10.75 8.62421 10.75 8.62172C10.75 8.61923 10.75 8.61673 10.75 8.61425C10.75 8.61176 10.75 8.60927 10.75 8.60678C10.75 8.6043 10.75 8.60181 10.75 8.59933C10.75 8.59685 10.75 8.59437 10.75 8.59189C10.75 8.58941 10.75 8.58694 10.75 8.58446C10.75 8.58199 10.75 8.57951 10.75 8.57704C10.75 8.57457 10.75 8.5721 10.75 8.56963C10.75 8.56717 10.75 8.5647 10.75 8.56223C10.75 8.55977 10.75 8.55731 10.75 8.55485C10.75 8.55238 10.75 8.54993 10.75 8.54747C10.75 8.54501 10.75 8.54255 10.75 8.5401C10.75 8.53765 10.75 8.53519 10.75 8.53274C10.75 8.53029 10.75 8.52784 10.75 8.52539C10.75 8.52295 10.75 8.5205 10.75 8.51806C10.75 8.51561 10.75 8.51317 10.75 8.51073C10.75 8.50829 10.75 8.50585 10.75 8.50341C10.75 8.50097 10.75 8.49854 10.75 8.4961C10.75 8.49367 10.75 8.49124 10.75 8.48881C10.75 8.48637 10.75 8.48394 10.75 8.48152C10.75 8.47909 10.75 8.47666 10.75 8.47424C10.75 8.47181 10.75 8.46939 10.75 8.46697C10.75 8.46455 10.75 8.46213 10.75 8.45971C10.75 8.45729 10.75 8.45488 10.75 8.45246C10.75 8.45005 10.75 8.44763 10.75 8.44522C10.75 8.44281 10.75 8.4404 10.75 8.43799C10.75 8.43558 10.75 8.43317 10.75 8.43077C10.75 8.42836 10.75 8.42596 10.75 8.42356C10.75 8.42115 10.75 8.41875 10.75 8.41635C10.75 8.41395 10.75 8.41156 10.75 8.40916C10.75 8.40676 10.75 8.40437 10.75 8.40198C10.75 8.39958 10.75 8.39719 10.75 8.3948C10.75 8.39241 10.75 8.39002 10.75 8.38763C10.75 8.38525 10.75 8.38286 10.75 8.38048C10.75 8.37809 10.75 8.37571 10.75 8.37333C10.75 8.37095 10.75 8.36857 10.75 8.36619C10.75 8.36381 10.75 8.36143 10.75 8.35906C10.75 8.35668 10.75 8.35431 10.75 8.35194C10.75 8.34956 10.75 8.34719 10.75 8.34482C10.75 8.34245 10.75 8.34009 10.75 8.33772C10.75 8.33535 10.75 8.33299 10.75 8.33062C10.75 8.32826 10.75 8.3259 10.75 8.32354C10.75 8.32118 10.75 8.31882 10.75 8.31646C10.75 8.3141 10.75 8.31174 10.75 8.30939C10.75 8.30703 10.75 8.30468 10.75 8.30233C10.75 8.29997 10.75 8.29762 10.75 8.29527C10.75 8.29292 10.75 8.29057 10.75 8.28823C10.75 8.28588 10.75 8.28354 10.75 8.28119C10.75 8.27885 10.75 8.2765 10.75 8.27416C10.75 8.27182 10.75 8.26948 10.75 8.26714C10.75 8.2648 10.75 8.26246 10.75 8.26013C10.75 8.25779 10.75 8.25546 10.75 8.25312C10.75 8.25079 10.75 8.24846 10.75 8.24613C10.75 8.2438 10.75 8.24147 10.75 8.23914C10.75 8.23681 10.75 8.23448 10.75 8.23216C10.75 8.22983 10.75 8.22751 10.75 8.22518C10.75 8.22286 10.75 8.22054 10.75 8.21822C10.75 8.2159 10.75 8.21358 10.75 8.21126C10.75 8.20894 10.75 8.20663 10.75 8.20431C10.75 8.202 10.75 8.19968 10.75 8.19737C10.75 8.19506 10.75 8.19274 10.75 8.19043C10.75 8.18812 10.75 8.18581 10.75 8.18351C10.75 8.1812 10.75 8.17889 10.75 8.17659C10.75 8.17428 10.75 8.17198 10.75 8.16967C10.75 8.16737 10.75 8.16507 10.75 8.16277C10.75 8.16047 10.75 8.15817 10.75 8.15587C10.75 8.15357 10.75 8.15127 10.75 8.14898C10.75 8.14668 10.75 8.14439 10.75 8.14209C10.75 8.1398 10.75 8.13751 10.75 8.13522C10.75 8.13293 10.75 8.13064 10.75 8.12835C10.75 8.12606 10.75 8.12377 10.75 8.12148C10.75 8.1192 10.75 8.11691 10.75 8.11463C10.75 8.11234 10.75 8.11006 10.75 8.10778C10.75 8.1055 10.75 8.10322 10.75 8.10094C10.75 8.09866 10.75 8.09638 10.75 8.0941C10.75 8.09182 10.75 8.08955 10.75 8.08727C10.75 8.085 10.75 8.08272 10.75 8.08045C10.75 8.07818 10.75 8.0759 10.75 8.07363C10.75 8.07136 10.75 8.06909 10.75 8.06682C10.75 8.06456 10.75 8.06229 10.75 8.06002C10.75 8.05776 10.75 8.05549 10.75 8.05323C10.75 8.05096 10.75 8.0487 10.75 8.04644C10.75 8.04417 10.75 8.04191 10.75 8.03965C10.75 8.03739 10.75 8.03513 10.75 8.03287C10.75 8.03062 10.75 8.02836 10.75 8.0261C10.75 8.02385 10.75 8.02159 10.75 8.01934C10.75 8.01708 10.75 8.01483 10.75 8.01258C10.75 8.01033 10.75 8.00808 10.75 8.00583C10.75 8.00358 10.75 8.00133 10.75 7.99908C10.75 7.99683 10.75 7.99458 10.75 7.99234C10.75 7.99009 10.75 7.98785 10.75 7.9856C10.75 7.98336 10.75 7.98111 10.75 7.97887C10.75 7.97663 10.75 7.97439 10.75 7.97215C10.75 7.96991 10.75 7.96767 10.75 7.96543C10.75 7.96319 10.75 7.96095 10.75 7.95872C10.75 7.95648 10.75 7.95425 10.75 7.95201C10.75 7.94978 10.75 7.94754 10.75 7.94531C10.75 7.94308 10.75 7.94084 10.75 7.93861C10.75 7.93638 10.75 7.93415 10.75 7.93192C10.75 7.92969 10.75 7.92746 10.75 7.92524C10.75 7.92301 10.75 7.92078 10.75 7.91856C10.75 7.91633 10.75 7.91411 10.75 7.91188C10.75 7.90966 10.75 7.90744 10.75 7.90521C10.75 7.90299 10.75 7.90077 10.75 7.89855C10.75 7.89633 10.75 7.89411 10.75 7.89189C10.75 7.88967 10.75 7.88745 10.75 7.88524C10.75 7.88302 10.75 7.8808 10.75 7.87859C10.75 7.87637 10.75 7.87416 10.75 7.87194C10.75 7.86973 10.75 7.86751 10.75 7.8653C10.75 7.86309 10.75 7.86088 10.75 7.85867C10.75 7.85646 10.75 7.85425 10.75 7.85204C10.75 7.84983 10.75 7.84762 10.75 7.84541C10.75 7.84321 10.75 7.841 10.75 7.83879C10.75 7.83659 10.75 7.83438 10.75 7.83218C10.75 7.82997 10.75 7.82777 10.75 7.82556C10.75 7.82336 10.75 7.82116 10.75 7.81896C10.75 7.81676 10.75 7.81456 10.75 7.81236C10.75 7.81016 10.75 7.80796 10.75 7.80576C10.75 7.80356 10.75 7.80136 10.75 7.79916C10.75 7.79697 10.75 7.79477 10.75 7.79257C10.75 7.79038 10.75 7.78818 10.75 7.78599C10.75 7.78379 10.75 7.7816 10.75 7.77941C10.75 7.77721 10.75 7.77502 10.75 7.77283C10.75 7.77064 10.75 7.76845 10.75 7.76626C10.75 7.76407 10.75 7.76188 10.75 7.75969C10.75 7.7575 10.75 7.75531 10.75 7.75312C10.75 7.75093 10.75 7.74875 10.75 7.74656C10.75 7.74437 10.75 7.74219 10.75 7.74C10.75 7.73782 10.75 7.73563 10.75 7.73345C10.75 7.73126 10.75 7.72908 10.75 7.7269C10.75 7.72472 10.75 7.72253 10.75 7.72035C10.75 7.71817 10.75 7.71599 10.75 7.71381C10.75 7.71163 10.75 7.70945 10.75 7.70727C10.75 7.70509 10.75 7.70291 10.75 7.70073C10.75 7.69856 10.75 7.69638 10.75 7.6942C10.75 7.69202 10.75 7.68985 10.75 7.68767C10.75 7.6855 10.75 7.68332 10.75 7.68115C10.75 7.67897 10.75 7.6768 10.75 7.67462C10.75 7.67245 10.75 7.67028 10.75 7.6681C10.75 7.66593 10.75 7.66376 10.75 7.66159C10.75 7.65942 10.75 7.65725 10.75 7.65508C10.75 7.6529 10.75 7.65073 10.75 7.64856C10.75 7.6464 10.75 7.64423 10.75 7.64206C10.75 7.63989 10.75 7.63772 10.75 7.63555C10.75 7.63339 10.75 7.63122 10.75 7.62905C10.75 7.62689 10.75 7.62472 10.75 7.62255C10.75 7.62039 10.75 7.61822 10.75 7.61606C10.75 7.61389 10.75 7.61173 10.75 7.60957C10.75 7.6074 10.75 7.60524 10.75 7.60307C10.75 7.60091 10.75 7.59875 10.75 7.59659C10.75 7.59442 10.75 7.59226 10.75 7.5901C10.75 7.58794 10.75 7.58578 10.75 7.58362C10.75 7.58146 10.75 7.5793 10.75 7.57714C10.75 7.57498 10.75 7.57282 10.75 7.57066C10.75 7.5685 10.75 7.56634 10.75 7.56419C10.75 7.56203 10.75 7.55987 10.75 7.55771C10.75 7.55555 10.75 7.5534 10.75 7.55124C10.75 7.54908 10.75 7.54693 10.75 7.54477C10.75 7.54262 10.75 7.54046 10.75 7.5383C10.75 7.53615 10.75 7.53399 10.75 7.53184C10.75 7.52969 10.75 7.52753 10.75 7.52538C10.75 7.52322 10.75 7.52107 10.75 7.51892C10.75 7.51676 10.75 7.51461 10.75 7.51246C10.75 7.5103 10.75 7.50815 10.75 7.506C10.75 7.50385 10.75 7.5017 10.75 7.49954C10.75 7.49739 10.75 7.49524 10.75 7.49309C10.75 7.49094 10.75 7.48879 10.75 7.48664C10.75 7.48449 10.75 7.48234 10.75 7.48019C10.75 7.47804 10.75 7.47589 10.75 7.47374C10.75 7.47159 10.75 7.46944 10.75 7.46729C10.75 7.46514 10.75 7.46299 10.75 7.46085C10.75 7.4587 10.75 7.45655 10.75 7.4544C10.75 7.45225 10.75 7.45011 10.75 7.44796C10.75 7.44581 10.75 7.44366 10.75 7.44152C10.75 7.43937 10.75 7.43722 10.75 7.43507C10.75 7.43293 10.75 7.43078 10.75 7.42864C10.75 7.42649 10.75 7.42434 10.75 7.4222C10.75 7.42005 10.75 7.4179 10.75 7.41576C10.75 7.41361 10.75 7.41147 10.75 7.40932C10.75 7.40718 10.75 7.40503 10.75 7.40289C10.75 7.40074 10.75 7.3986 10.75 7.39645C10.75 7.39431 10.75 7.39216 10.75 7.39002C10.75 7.38787 10.75 7.38573 10.75 7.38359C10.75 7.38144 10.75 7.3793 10.75 7.37715C10.75 7.37501 10.75 7.37286 10.75 7.37072C10.75 7.36858 10.75 7.36643 10.75 7.36429C10.75 7.36215 10.75 7.36 10.75 7.35786C10.75 7.35572 10.75 7.35357 10.75 7.35143C10.75 7.34929 10.75 7.34714 10.75 7.345C10.75 7.34286 10.75 7.34071 10.75 7.33857C10.75 7.33643 10.75 7.33428 10.75 7.33214C10.75 7.33 10.75 7.32786 10.75 7.32571C10.75 7.32357 10.75 7.32143 10.75 7.31928C10.75 7.31714 10.75 7.315 10.75 7.31286C10.75 7.31071 10.75 7.30857 10.75 7.30643C10.75 7.30429 10.75 7.30214 10.75 7.3C10.75 7.29786 10.75 7.29571 10.75 7.29357C10.75 7.29143 10.75 7.28929 10.75 7.28714C10.75 7.285 10.75 7.28286 10.75 7.28072C10.75 7.27857 10.75 7.27643 10.75 7.27429C10.75 7.27214 10.75 7.27 10.75 7.26786C10.75 7.26572 10.75 7.26357 10.75 7.26143C10.75 7.25929 10.75 7.25714 10.75 7.255C10.75 7.25286 10.75 7.25071 10.75 7.24857C10.75 7.24643 10.75 7.24428 10.75 7.24214C10.75 7.24 10.75 7.23785 10.75 7.23571C10.75 7.23357 10.75 7.23142 10.75 7.22928C10.75 7.22714 10.75 7.22499 10.75 7.22285C10.75 7.2207 10.75 7.21856 10.75 7.21642C10.75 7.21427 10.75 7.21213 10.75 7.20998C10.75 7.20784 10.75 7.20569 10.75 7.20355C10.75 7.2014 10.75 7.19926 10.75 7.19711C10.75 7.19497 10.75 7.19282 10.75 7.19068C10.75 7.18853 10.75 7.18639 10.75 7.18424C10.75 7.1821 10.75 7.17995 10.75 7.1778C10.75 7.17566 10.75 7.17351 10.75 7.17137C10.75 7.16922 10.75 7.16707 10.75 7.16493C10.75 7.16278 10.75 7.16063 10.75 7.15848C10.75 7.15634 10.75 7.15419 10.75 7.15204C10.75 7.1499 10.75 7.14775 10.75 7.1456C10.75 7.14345 10.75 7.1413 10.75 7.13915C10.75 7.13701 10.75 7.13486 10.75 7.13271C10.75 7.13056 10.75 7.12841 10.75 7.12626C10.75 7.12411 10.75 7.12196 10.75 7.11981C10.75 7.11766 10.75 7.11551 10.75 7.11336C10.75 7.11121 10.75 7.10906 10.75 7.10691C10.75 7.10476 10.75 7.10261 10.75 7.10046C10.75 7.0983 10.75 7.09615 10.75 7.094C10.75 7.09185 10.75 7.0897 10.75 7.08754C10.75 7.08539 10.75 7.08324 10.75 7.08108C10.75 7.07893 10.75 7.07678 10.75 7.07462C10.75 7.07247 10.75 7.07032 10.75 7.06816C10.75 7.06601 10.75 7.06385 10.75 7.0617C10.75 7.05954 10.75 7.05738 10.75 7.05523C10.75 7.05307 10.75 7.05092 10.75 7.04876C10.75 7.0466 10.75 7.04445 10.75 7.04229C10.75 7.04013 10.75 7.03797 10.75 7.03582C10.75 7.03366 10.75 7.0315 10.75 7.02934C10.75 7.02718 10.75 7.02502 10.75 7.02286C10.75 7.0207 10.75 7.01854 10.75 7.01638C10.75 7.01422 10.75 7.01206 10.75 7.0099C10.75 7.00774 10.75 7.00558 10.75 7.00341C10.75 7.00125 10.75 6.99909 10.75 6.99693C10.75 6.99476 10.75 6.9926 10.75 6.99044C10.75 6.98827 10.75 6.98611 10.75 6.98394C10.75 6.98178 10.75 6.97961 10.75 6.97745C10.75 6.97528 10.75 6.97311 10.75 6.97095C10.75 6.96878 10.75 6.96661 10.75 6.96445C10.75 6.96228 10.75 6.96011 10.75 6.95794C10.75 6.95577 10.75 6.9536 10.75 6.95144C10.75 6.94927 10.75 6.9471 10.75 6.94493C10.75 6.94275 10.75 6.94058 10.75 6.93841C10.75 6.93624 10.75 6.93407 10.75 6.9319C10.75 6.92972 10.75 6.92755 10.75 6.92538C10.75 6.9232 10.75 6.92103 10.75 6.91885C10.75 6.91668 10.75 6.9145 10.75 6.91233C10.75 6.91015 10.75 6.90798 10.75 6.9058C10.75 6.90362 10.75 6.90144 10.75 6.89927C10.75 6.89709 10.75 6.89491 10.75 6.89273C10.75 6.89055 10.75 6.88837 10.75 6.88619C10.75 6.88401 10.75 6.88183 10.75 6.87965C10.75 6.87747 10.75 6.87528 10.75 6.8731C10.75 6.87092 10.75 6.86874 10.75 6.86655C10.75 6.86437 10.75 6.86218 10.75 6.86C10.75 6.85781 10.75 6.85563 10.75 6.85344C10.75 6.85125 10.75 6.84907 10.75 6.84688C10.75 6.84469 10.75 6.8425 10.75 6.84031C10.75 6.83812 10.75 6.83593 10.75 6.83374C10.75 6.83155 10.75 6.82936 10.75 6.82717C10.75 6.82498 10.75 6.82279 10.75 6.82059C10.75 6.8184 10.75 6.81621 10.75 6.81401C10.75 6.81182 10.75 6.80962 10.75 6.80743C10.75 6.80523 10.75 6.80303 10.75 6.80084C10.75 6.79864 10.75 6.79644 10.75 6.79424C10.75 6.79204 10.75 6.78985 10.75 6.78765C10.75 6.78545 10.75 6.78324 10.75 6.78104C10.75 6.77884 10.75 6.77664 10.75 6.77444C10.75 6.77223 10.75 6.77003 10.75 6.76782C10.75 6.76562 10.75 6.76341 10.75 6.76121C10.75 6.759 10.75 6.7568 10.75 6.75459C10.75 6.75238 10.75 6.75017 10.75 6.74796C10.75 6.74575 10.75 6.74354 10.75 6.74133C10.75 6.73912 10.75 6.73691 10.75 6.7347C10.75 6.73249 10.75 6.73027 10.75 6.72806C10.75 6.72584 10.75 6.72363 10.75 6.72141C10.75 6.7192 10.75 6.71698 10.75 6.71476C10.75 6.71255 10.75 6.71033 10.75 6.70811C10.75 6.70589 10.75 6.70367 10.75 6.70145C10.75 6.69923 10.75 6.69701 10.75 6.69479C10.75 6.69256 10.75 6.69034 10.75 6.68812C10.75 6.68589 10.75 6.68367 10.75 6.68144C10.75 6.67922 10.75 6.67699 10.75 6.67476C10.75 6.67254 10.75 6.67031 10.75 6.66808C10.75 6.66585 10.75 6.66362 10.75 6.66139C10.75 6.65916 10.75 6.65692 10.75 6.65469C10.75 6.65246 10.75 6.65022 10.75 6.64799C10.75 6.64576 10.75 6.64352 10.75 6.64128C10.75 6.63905 10.75 6.63681 10.75 6.63457C10.75 6.63233 10.75 6.63009 10.75 6.62785C10.75 6.62561 10.75 6.62337 10.75 6.62113C10.75 6.61889 10.75 6.61664 10.75 6.6144C10.75 6.61215 10.75 6.60991 10.75 6.60766C10.75 6.60542 10.75 6.60317 10.75 6.60092C10.75 6.59867 10.75 6.59642 10.75 6.59417C10.75 6.59192 10.75 6.58967 10.75 6.58742C10.75 6.58517 10.75 6.58292 10.75 6.58066C10.75 6.57841 10.75 6.57615 10.75 6.5739C10.75 6.57164 10.75 6.56938 10.75 6.56713C10.75 6.56487 10.75 6.56261 10.75 6.56035C10.75 6.55809 10.75 6.55583 10.75 6.55356C10.75 6.5513 10.75 6.54904 10.75 6.54677C10.75 6.54451 10.75 6.54224 10.75 6.53998C10.75 6.53771 10.75 6.53544 10.75 6.53318C10.75 6.53091 10.75 6.52864 10.75 6.52637C10.75 6.5241 10.75 6.52182 10.75 6.51955C10.75 6.51728 10.75 6.515 10.75 6.51273C10.75 6.51045 10.75 6.50818 10.75 6.5059C10.75 6.50362 10.75 6.50134 10.75 6.49906C10.75 6.49678 10.75 6.4945 10.75 6.49222C10.75 6.48994 10.75 6.48766 10.75 6.48537C10.75 6.48309 10.75 6.4808 10.75 6.47852C10.75 6.47623 10.75 6.47394 10.75 6.47165C10.75 6.46936 10.75 6.46707 10.75 6.46478C10.75 6.46249 10.75 6.4602 10.75 6.45791C10.75 6.45561 10.75 6.45332 10.75 6.45102C10.75 6.44873 10.75 6.44643 10.75 6.44413C10.75 6.44183 10.75 6.43953 10.75 6.43723C10.75 6.43493 10.75 6.43263 10.75 6.43033C10.75 6.42802 10.75 6.42572 10.75 6.42341C10.75 6.42111 10.75 6.4188 10.75 6.41649C10.75 6.41419 10.75 6.41188 10.75 6.40957C10.75 6.40726 10.75 6.40494 10.75 6.40263C10.75 6.40032 10.75 6.398 10.75 6.39569C10.75 6.39337 10.75 6.39106 10.75 6.38874C10.75 6.38642 10.75 6.3841 10.75 6.38178C10.75 6.37946 10.75 6.37714 10.75 6.37482C10.75 6.37249 10.75 6.37017 10.75 6.36784C10.75 6.36552 10.75 6.36319 10.75 6.36086C10.75 6.35853 10.75 6.3562 10.75 6.35387C10.75 6.35154 10.75 6.34921 10.75 6.34688C10.75 6.34454 10.75 6.34221 10.75 6.33987C10.75 6.33754 10.75 6.3352 10.75 6.33286C10.75 6.33052 10.75 6.32818 10.75 6.32584C10.75 6.3235 10.75 6.32115 10.75 6.31881C10.75 6.31647 10.75 6.31412 10.75 6.31177C10.75 6.30943 10.75 6.30708 10.75 6.30473C10.75 6.30238 10.75 6.30003 10.75 6.29767C10.75 6.29532 10.75 6.29297 10.75 6.29061C10.75 6.28826 10.75 6.2859 10.75 6.28354C10.75 6.28118 10.75 6.27882 10.75 6.27646C10.75 6.2741 10.75 6.27174 10.75 6.26938C10.75 6.26701 10.75 6.26465 10.75 6.26228C10.75 6.25991 10.75 6.25755 10.75 6.25518C10.75 6.25281 10.75 6.25044 10.75 6.24806C10.75 6.24569 10.75 6.24332 10.75 6.24094C10.75 6.23857 10.75 6.23619 10.75 6.23381C10.75 6.23143 10.75 6.22905 10.75 6.22667C10.75 6.22429 10.75 6.22191 10.75 6.21952C10.75 6.21714 10.75 6.21475 10.75 6.21237C10.75 6.20998 10.75 6.20759 10.75 6.2052C10.75 6.20281 10.75 6.20042 10.75 6.19802C10.75 6.19563 10.75 6.19324 10.75 6.19084C10.75 6.18844 10.75 6.18605 10.75 6.18365C10.75 6.18125 10.75 6.17885 10.75 6.17644C10.75 6.17404 10.75 6.17164 10.75 6.16923C10.75 6.16683 10.75 6.16442 10.75 6.16201C10.75 6.1596 10.75 6.15719 10.75 6.15478C10.75 6.15237 10.75 6.14995 10.75 6.14754C10.75 6.14512 10.75 6.14271 10.75 6.14029C10.75 6.13787 10.75 6.13545 10.75 6.13303C10.75 6.13061 10.75 6.12819 10.75 6.12576C10.75 6.12334 10.75 6.12091 10.75 6.11848C10.75 6.11606 10.75 6.11363 10.75 6.1112C10.75 6.10876 10.75 6.10633 10.75 6.1039C10.75 6.10146 10.75 6.09903 10.75 6.09659C10.75 6.09415 10.75 6.09171 10.75 6.08927C10.75 6.08683 10.75 6.08439 10.75 6.08194C10.75 6.0795 10.75 6.07705 10.75 6.07461C10.75 6.07216 10.75 6.06971 10.75 6.06726C10.75 6.06481 10.75 6.06235 10.75 6.0599C10.75 6.05745 10.75 6.05499 10.75 6.05253C10.75 6.05007 10.75 6.04762 10.75 6.04515C10.75 6.04269 10.75 6.04023 10.75 6.03777C10.75 6.0353 10.75 6.03284 10.75 6.03037C10.75 6.0279 10.75 6.02543 10.75 6.02296C10.75 6.02049 10.75 6.01801 10.75 6.01554C10.75 6.01306 10.75 6.01059 10.75 6.00811C10.75 6.00563 10.75 6.00315 10.75 6.00067C10.75 5.99819 10.75 5.9957 10.75 5.99322C10.75 5.99073 10.75 5.98824 10.75 5.98575C10.75 5.98327 10.75 5.98077 10.75 5.97828C10.75 5.97579 10.75 5.97329 10.75 5.9708C10.75 5.9683 10.75 5.9658 10.75 5.9633C10.75 5.9608 10.75 5.9583 10.75 5.9558C10.75 5.9533 10.75 5.95079 10.75 5.94828C10.75 5.94578 10.75 5.94327 10.75 5.94076C10.75 5.93825 10.75 5.93573 10.75 5.93322C10.75 5.9307 10.75 5.92819 10.75 5.92567C10.75 5.92315 10.75 5.92063 10.75 5.91811C10.75 5.91559 10.75 5.91306 10.75 5.91054C10.75 5.90801 10.75 5.90548 10.75 5.90295C10.75 5.90042 10.75 5.89789 10.75 5.89536C10.75 5.89283 10.75 5.89029 10.75 5.88775C10.75 5.88522 10.75 5.88268 10.75 5.88014C10.75 5.8776 10.75 5.87505 10.75 5.87251C10.75 5.86996 10.75 5.86742 10.75 5.86487C10.75 5.86232 10.75 5.85977 10.75 5.85722C10.75 5.85467 10.75 5.85211 10.75 5.84955C10.75 5.847 10.75 5.84444 10.75 5.84188C10.75 5.83932 10.75 5.83676 10.75 5.83419C10.75 5.83163 10.75 5.82906 10.75 5.82649C10.75 5.82393 10.75 5.82136 10.75 5.81878C10.75 5.81621 10.75 5.81364 10.75 5.81106C10.75 5.80849 10.75 5.80591 10.75 5.80333C10.75 5.80075 10.75 5.79817 10.75 5.79558C10.75 5.793 10.75 5.79041 10.75 5.78782C10.75 5.78523 10.75 5.78264 10.75 5.78005C10.75 5.77746 10.75 5.77487 10.75 5.77227C10.75 5.76967 10.75 5.76708 10.75 5.76447C10.75 5.76187 10.75 5.75927 10.75 5.75667C10.75 5.75406 10.75 5.75146 10.75 5.74885C10.75 5.74624 10.75 5.74363 10.75 5.74102C10.75 5.7384 10.75 5.73579 10.75 5.73317C10.75 5.73055 10.75 5.72793 10.75 5.72531C10.75 5.72269 10.75 5.72007 10.75 5.71744C10.75 5.71482 10.75 5.71219 10.75 5.70956C10.75 5.70693 10.75 5.7043 10.75 5.70167C10.75 5.69903 10.75 5.6964 10.75 5.69376C10.75 5.69112 10.75 5.68848 10.75 5.68584C10.75 5.6832 10.75 5.68055 10.75 5.6779C10.75 5.67526 10.75 5.67261 10.75 5.66996C10.75 5.66731 10.75 5.66465 10.75 5.662C10.75 5.65934 10.75 5.65669 10.75 5.65403C10.75 5.65137 10.75 5.6487 10.75 5.64604C10.75 5.64338 10.75 5.64071 10.75 5.63804C10.75 5.63537 10.75 5.6327 10.75 5.63003C10.75 5.62736 10.75 5.62468 10.75 5.622C10.75 5.61933 10.75 5.61665 10.75 5.61397C10.75 5.61128 10.75 5.6086 10.75 5.60591C10.75 5.60323 10.75 5.60054 10.75 5.59785C10.75 5.59516 10.75 5.59247 10.75 5.58977C10.75 5.58708 10.75 5.58438 10.75 5.58168C10.75 5.57898 10.75 5.57628 10.75 5.57357C10.75 5.57087 10.75 5.56816 10.75 5.56545C10.75 5.56274 10.75 5.56003 10.75 5.55732C10.75 5.55461 10.75 5.55189 10.75 5.54917C10.75 5.54646 10.75 5.54374 10.75 5.54101C10.75 5.53829 10.75 5.53557 10.75 5.53284C10.75 5.53011 10.75 5.52738 10.75 5.52465C10.75 5.52192 10.75 5.51918 10.75 5.51645C10.75 5.51371 10.75 5.51097 10.75 5.50823C10.75 5.50549 10.75 5.50275 10.75 5.5H9.25ZM9.25 9.1V12.7H10.75V9.1H9.25Z" fill="white"/>
</svg>
