<svg width="46" height="50" viewBox="0 0 46 50" fill="none" xmlns="http://www.w3.org/2000/svg">
<path d="M2.26324 13.7029L1.59592 13.3606H1.59592L2.26324 13.7029ZM2.83143 12.7187L3.46155 13.1255H3.46155L2.83143 12.7187ZM11.9155 43.8279L12.2905 43.1784L11.9155 43.8279ZM2.83143 37.1245L2.2013 37.5313H2.2013L2.83143 37.1245ZM2.26324 36.1404L1.59592 36.4827H1.59592L2.26324 36.1404ZM33.7466 43.8279L33.3716 43.1784L33.7466 43.8279ZM23.3992 48.3433L23.4364 49.0923L23.3992 48.3433ZM22.2629 48.3433L22.2257 49.0923L22.2629 48.3433ZM43.3989 36.1404L44.0662 36.4827L43.3989 36.1404ZM42.8307 37.1245L43.4608 37.5313L42.8307 37.1245ZM42.8307 12.7187L42.2006 13.1255L42.8307 12.7187ZM43.3989 13.7029L44.0662 13.3606L43.3989 13.7029ZM23.3992 1.5L23.4364 0.750923L23.3992 1.5ZM22.2629 1.5L22.2257 0.750923L22.2629 1.5ZM38.497 40.6488L37.7778 40.8617L37.7836 40.8813L37.7904 40.9005L38.497 40.6488ZM38.6003 40.9389L39.0065 41.5693L38.6003 40.9389ZM7.14903 40.704L6.42855 40.4956L6.41885 40.5292L6.41231 40.5635L7.14903 40.704ZM7.0996 40.9632L6.69402 41.594H6.69402L7.0996 40.9632ZM31.2477 18.0466C31.2477 22.695 27.4794 26.4633 22.8311 26.4633V27.9633C28.3079 27.9633 32.7477 23.5235 32.7477 18.0466H31.2477ZM22.8311 26.4633C18.1827 26.4633 14.4144 22.695 14.4144 18.0466H12.9144C12.9144 23.5235 17.3542 27.9633 22.8311 27.9633V26.4633ZM14.4144 18.0466C14.4144 13.3982 18.1827 9.62996 22.8311 9.62996V8.12996C17.3542 8.12996 12.9144 12.5698 12.9144 18.0466H14.4144ZM22.8311 9.62996C27.4794 9.62996 31.2477 13.3982 31.2477 18.0466H32.7477C32.7477 12.5698 28.3079 8.12996 22.8311 8.12996V9.62996ZM1.75 24.9216C1.75 21.9897 1.75069 19.8395 1.90493 18.1134C2.05789 16.4015 2.35847 15.1604 2.93055 14.0452L1.59592 13.3606C0.904773 14.7078 0.57373 16.1574 0.410882 17.9799C0.249312 19.7881 0.25 22.016 0.25 24.9216H1.75ZM11.5405 5.36586C9.0242 6.81866 7.09439 7.93204 5.60923 8.97607C4.11231 10.0284 3.02251 11.0398 2.2013 12.312L3.46155 13.1255C4.14129 12.0725 5.06582 11.1916 6.47186 10.2032C7.88966 9.20654 9.75143 8.13085 12.2905 6.6649L11.5405 5.36586ZM2.93055 14.0452C3.09223 13.73 3.26945 13.4231 3.46155 13.1255L2.2013 12.312C1.98229 12.6513 1.78025 13.0012 1.59592 13.3606L2.93055 14.0452ZM0.25 24.9216C0.25 27.8272 0.249312 30.0552 0.410882 31.8634C0.57373 33.6859 0.904773 35.1354 1.59592 36.4827L2.93055 35.798C2.35847 34.6829 2.05789 33.4418 1.90493 31.7299C1.75069 30.0037 1.75 27.8535 1.75 24.9216H0.25ZM3.46155 36.7178C3.26945 36.4202 3.09223 36.1132 2.93055 35.798L1.59592 36.4827C1.78025 36.842 1.98229 37.192 2.2013 37.5313L3.46155 36.7178ZM33.3716 43.1784C30.8325 44.6443 28.97 45.7188 27.398 46.4483C25.839 47.1718 24.6139 47.532 23.3621 47.5942L23.4364 49.0923C24.9488 49.0173 26.3696 48.5792 28.0294 47.809C29.6761 47.0448 31.6053 45.9302 34.1216 44.4774L33.3716 43.1784ZM11.5405 44.4774C14.0569 45.9302 15.986 47.0448 17.6327 47.809C19.2925 48.5792 20.7133 49.0173 22.2257 49.0923L22.3001 47.5942C21.0482 47.532 19.8231 47.1718 18.2641 46.4483C16.6921 45.7188 14.8296 44.6443 12.2905 43.1784L11.5405 44.4774ZM23.3621 47.5942C23.0083 47.6117 22.6538 47.6117 22.3001 47.5942L22.2257 49.0923C22.629 49.1124 23.0331 49.1124 23.4364 49.0923L23.3621 47.5942ZM43.9121 24.9216C43.9121 27.8535 43.9114 30.0037 43.7572 31.7299C43.6042 33.4418 43.3036 34.6829 42.7316 35.798L44.0662 36.4827C44.7573 35.1354 45.0884 33.6859 45.2512 31.8634C45.4128 30.0552 45.4121 27.8272 45.4121 24.9216H43.9121ZM42.7316 35.798C42.5699 36.1132 42.3927 36.4202 42.2006 36.7178L43.4608 37.5313C43.6798 37.192 43.8819 36.842 44.0662 36.4827L42.7316 35.798ZM33.3716 6.6649C35.9107 8.13085 37.7725 9.20654 39.1903 10.2032C40.5963 11.1916 41.5208 12.0725 42.2006 13.1255L43.4608 12.312C42.6396 11.0398 41.5498 10.0284 40.0529 8.97607C38.5677 7.93204 36.6379 6.81866 34.1216 5.36586L33.3716 6.6649ZM45.4121 24.9216C45.4121 22.016 45.4128 19.7881 45.2512 17.9799C45.0884 16.1574 44.7573 14.7078 44.0662 13.3606L42.7316 14.0452C43.3036 15.1604 43.6042 16.4015 43.7572 18.1134C43.9114 19.8395 43.9121 21.9897 43.9121 24.9216H45.4121ZM42.2006 13.1255C42.3927 13.4231 42.5699 13.73 42.7316 14.0452L44.0662 13.3606C43.8819 13.0012 43.6798 12.6513 43.4608 12.312L42.2006 13.1255ZM34.1216 5.36586C31.6053 3.91305 29.6761 2.79848 28.0294 2.0343C26.3696 1.26408 24.9488 0.826009 23.4364 0.750923L23.3621 2.24908C24.6139 2.31123 25.839 2.67147 27.398 3.39493C28.97 4.12444 30.8325 5.19894 33.3716 6.6649L34.1216 5.36586ZM12.2905 6.6649C14.8296 5.19894 16.6921 4.12444 18.2641 3.39493C19.8231 2.67147 21.0482 2.31123 22.3001 2.24908L22.2257 0.750923C20.7133 0.826009 19.2925 1.26408 17.6327 2.0343C15.986 2.79848 14.0569 3.91305 11.5405 5.36586L12.2905 6.6649ZM23.4364 0.750923C23.0331 0.730897 22.629 0.730897 22.2257 0.750923L22.3001 2.24908C22.6538 2.23151 23.0083 2.23151 23.3621 2.24908L23.4364 0.750923ZM15.9561 34.8383H29.7061V33.3383H15.9561V34.8383ZM29.7061 34.8383C33.5221 34.8383 36.7467 37.3784 37.7778 40.8617L39.2161 40.436C38.0016 36.333 34.2045 33.3383 29.7061 33.3383V34.8383ZM34.1216 44.4774C36.0893 43.3414 37.6954 42.4143 39.0065 41.5693L38.194 40.3085C36.9205 41.1292 35.3504 42.0359 33.3716 43.1784L34.1216 44.4774ZM39.0065 41.5693C41.0575 40.2475 42.4598 39.0821 43.4608 37.5313L42.2006 36.7178C41.3714 38.0022 40.1802 39.0284 38.194 40.3085L39.0065 41.5693ZM37.7904 40.9005L37.8937 41.1905L39.3068 40.6872L39.2035 40.3972L37.7904 40.9005ZM15.9561 33.3383C11.4358 33.3383 7.62376 36.362 6.42855 40.4956L7.86952 40.9123C8.88418 37.4031 12.1216 34.8383 15.9561 34.8383V33.3383ZM12.2905 43.1784C10.3311 42.0471 8.77223 41.1469 7.50518 40.3323L6.69402 41.594C7.99785 42.4323 9.59188 43.3523 11.5405 44.4774L12.2905 43.1784ZM7.50518 40.3323C5.49677 39.0411 4.29587 38.0103 3.46155 36.7178L2.2013 37.5313C3.20856 39.0917 4.62209 40.262 6.69402 41.594L7.50518 40.3323ZM6.41231 40.5635L6.36288 40.8227L7.83632 41.1037L7.88576 40.8445L6.41231 40.5635Z" fill="#F47458"/>
</svg>
