<svg width="75" height="23" viewBox="0 0 75 23" fill="none" xmlns="http://www.w3.org/2000/svg">
<g clip-path="url(#clip0_87_8042)">
<path d="M30.5996 15.7529L31.3613 16.5146L30.5996 17.2764L29.8379 16.5146L30.5996 15.7529ZM31.4492 14.5078L32.2109 15.2695L31.4492 16.0312L30.6875 15.2695L31.4492 14.5078ZM29.75 14.5078L30.5117 15.2695L29.75 16.0312L28.9883 15.2695L29.75 14.5078ZM31.3076 14H30.2725C29.6995 14 29.1771 13.9577 28.7051 13.873C28.2331 13.7852 27.8262 13.6436 27.4844 13.4482C27.1426 13.2529 26.8789 12.9925 26.6934 12.667C26.5078 12.3415 26.415 11.9395 26.415 11.4609C26.415 11.181 26.446 10.9092 26.5078 10.6455C26.5729 10.3786 26.6527 10.1296 26.7471 9.89844L27.8408 10.3086C27.7855 10.4616 27.7318 10.6357 27.6797 10.8311C27.6276 11.0231 27.6016 11.2087 27.6016 11.3877C27.6016 11.6481 27.6683 11.863 27.8018 12.0322C27.9385 12.1982 28.1273 12.3301 28.3682 12.4277C28.6123 12.5221 28.8955 12.5889 29.2178 12.6279C29.5433 12.667 29.8949 12.6865 30.2725 12.6865H31.3174C31.5648 12.6865 31.8073 12.6784 32.0449 12.6621C32.2858 12.6426 32.5039 12.6051 32.6992 12.5498C32.8978 12.4945 33.0557 12.4115 33.1729 12.3008C33.29 12.1901 33.3486 12.042 33.3486 11.8564C33.3486 11.71 33.3275 11.4837 33.2852 11.1777C33.2428 10.8717 33.1794 10.5527 33.0947 10.2207L34.2764 9.9082C34.3285 10.0677 34.3724 10.2598 34.4082 10.4844C34.4473 10.709 34.4766 10.932 34.4961 11.1533C34.5156 11.3714 34.5254 11.5586 34.5254 11.7148C34.5254 12.1966 34.4408 12.5872 34.2715 12.8867C34.1022 13.1862 33.8678 13.4173 33.5684 13.5801C33.2721 13.7396 32.9303 13.8503 32.543 13.9121C32.1556 13.9707 31.7438 14 31.3076 14ZM35.6191 7.12988H36.8545V11.6807C36.8545 12.0485 36.9098 12.3089 37.0205 12.4619C37.1312 12.6117 37.3477 12.6865 37.6699 12.6865H37.7871V14H37.6699C36.9635 14 36.4443 13.8161 36.1123 13.4482C35.7835 13.0804 35.6191 12.5221 35.6191 11.7734V7.12988ZM42.0498 7.08594L42.8115 7.84766L42.0498 8.60938L41.2881 7.84766L42.0498 7.08594ZM42.8994 8.33105L43.6611 9.09277L42.8994 9.85449L42.1377 9.09277L42.8994 8.33105ZM41.2002 8.33105L41.9619 9.09277L41.2002 9.85449L40.4385 9.09277L41.2002 8.33105ZM40.9561 14C40.6175 14 40.3376 13.943 40.1162 13.8291C39.8981 13.7119 39.7207 13.5557 39.584 13.3604C39.4082 13.5589 39.1901 13.7152 38.9297 13.8291C38.6693 13.943 38.3438 14 37.9531 14H37.6113V12.6865H37.9629C38.3307 12.6865 38.6025 12.6198 38.7783 12.4863C38.9541 12.3496 39.042 12.1055 39.042 11.7539C39.042 11.7018 39.0387 11.6237 39.0322 11.5195C39.0257 11.4154 39.0176 11.2982 39.0078 11.168C39.0013 11.0378 38.9932 10.9108 38.9834 10.7871L40.126 10.6455L40.2285 11.8857C40.2383 12.0355 40.2708 12.1722 40.3262 12.2959C40.3848 12.4163 40.4661 12.5124 40.5703 12.584C40.6777 12.6523 40.8096 12.6865 40.9658 12.6865C41.2523 12.6865 41.4557 12.6068 41.5762 12.4473C41.6966 12.2845 41.7568 12.0534 41.7568 11.7539C41.7568 11.7051 41.7536 11.6286 41.7471 11.5244C41.7438 11.417 41.7373 11.2982 41.7275 11.168C41.7178 11.0378 41.708 10.9108 41.6982 10.7871L42.8408 10.6455L42.9434 11.8857C42.9531 12.0257 42.9808 12.1576 43.0264 12.2812C43.0719 12.4049 43.1403 12.5042 43.2314 12.5791C43.3258 12.6507 43.4463 12.6865 43.5928 12.6865C43.7295 12.6865 43.8385 12.6475 43.9199 12.5693C44.0013 12.488 44.0599 12.3822 44.0957 12.252C44.1315 12.1185 44.1494 11.9736 44.1494 11.8174C44.1494 11.596 44.1217 11.3438 44.0664 11.0605C44.0111 10.7741 43.9525 10.5072 43.8906 10.2598L45.0723 9.94727C45.1504 10.237 45.2106 10.5283 45.2529 10.8213C45.2952 11.111 45.3164 11.4007 45.3164 11.6904C45.3164 12.1071 45.2627 12.4912 45.1553 12.8428C45.0479 13.1911 44.8704 13.471 44.623 13.6826C44.3757 13.891 44.0371 13.9967 43.6074 14C43.3079 14 43.0557 13.9398 42.8506 13.8193C42.6455 13.6956 42.4762 13.5394 42.3428 13.3506C42.1735 13.5459 41.9701 13.7038 41.7324 13.8242C41.4948 13.9414 41.236 14 40.9561 14ZM51.7178 16.5098C51.0146 16.5098 50.4385 16.3763 49.9893 16.1094C49.5433 15.8457 49.2129 15.486 48.998 15.0303C48.7865 14.5778 48.6807 14.0667 48.6807 13.4971C48.6807 13.1748 48.7132 12.8298 48.7783 12.4619C48.8467 12.0908 48.9574 11.7018 49.1104 11.2949L50.2188 11.7197C50.1016 12.0648 50.012 12.3822 49.9502 12.6719C49.8916 12.9616 49.8623 13.2236 49.8623 13.458C49.8623 13.777 49.9176 14.07 50.0283 14.3369C50.1423 14.6038 50.3343 14.8171 50.6045 14.9766C50.8747 15.1361 51.2458 15.2158 51.7178 15.2158C52.2288 15.2158 52.6439 15.1605 52.9629 15.0498C53.2852 14.9391 53.5212 14.8138 53.6709 14.6738C53.8206 14.5339 53.8955 14.4199 53.8955 14.332C53.8955 14.2116 53.8369 14.1253 53.7197 14.0732C53.6058 14.0244 53.4235 14 53.1729 14H52.416C52.2923 14 52.2126 13.9674 52.1768 13.9023C52.1442 13.8372 52.1117 13.7493 52.0791 13.6387L51.8887 12.9355C51.8626 12.8542 51.8577 12.7939 51.874 12.7549C51.8903 12.7126 51.9473 12.6914 52.0449 12.6914H54.9355V14C54.9616 14.0716 54.9779 14.1302 54.9844 14.1758C54.9909 14.2214 54.9941 14.2718 54.9941 14.3271C54.9941 14.6104 54.9225 14.8822 54.7793 15.1426C54.6361 15.4062 54.4245 15.6406 54.1445 15.8457C53.8646 16.0508 53.5212 16.2119 53.1143 16.3291C52.7074 16.4495 52.2419 16.5098 51.7178 16.5098ZM58.0996 14.6104L58.9443 15.4551L58.0996 16.2998L57.2549 15.4551L58.0996 14.6104ZM61.8545 12.6865V14H61.5713C61.1676 14 60.8177 13.9593 60.5215 13.8779C60.2253 13.7965 59.9844 13.6663 59.7988 13.4873C59.6133 13.3083 59.4798 13.0739 59.3984 12.7842C58.9948 13.0023 58.5846 13.2041 58.168 13.3896C57.7513 13.5719 57.3265 13.7201 56.8936 13.834C56.4639 13.9447 56.0212 14 55.5654 14H54.7598V12.6865H55.5801C56.0195 12.6865 56.4313 12.6377 56.8154 12.54C57.2028 12.4424 57.5951 12.3057 57.9922 12.1299C58.3926 11.9508 58.8271 11.7409 59.2959 11.5C59.1755 11.4479 59.0404 11.3926 58.8906 11.334C58.7441 11.2754 58.5977 11.2184 58.4512 11.1631C58.3079 11.1045 58.181 11.0557 58.0703 11.0166C57.9564 10.971 57.8538 10.9336 57.7627 10.9043C57.6748 10.8717 57.5983 10.8473 57.5332 10.8311C57.4714 10.8148 57.4209 10.8066 57.3818 10.8066C57.1995 10.8066 57.0254 10.8636 56.8594 10.9775C56.6966 11.0882 56.5664 11.207 56.4688 11.334L56.2344 11.627L55.209 11.124L55.3994 10.8164C55.624 10.4453 55.9056 10.1393 56.2441 9.89844C56.5827 9.65755 56.9635 9.53711 57.3867 9.53711C57.6764 9.53711 57.9531 9.58919 58.2168 9.69336C58.4837 9.79427 58.7523 9.91146 59.0225 10.0449C59.3122 10.1882 59.5645 10.307 59.7793 10.4014C59.9941 10.4925 60.1862 10.5674 60.3555 10.626C60.528 10.6813 60.6956 10.7236 60.8584 10.7529C61.0212 10.779 61.1969 10.7969 61.3857 10.8066V12.0176C61.21 12.0339 61.0374 12.0648 60.8682 12.1104C60.6989 12.1527 60.5085 12.2194 60.2969 12.3105C60.3327 12.4017 60.4108 12.4766 60.5312 12.5352C60.6549 12.5905 60.8096 12.6296 60.9951 12.6523C61.1807 12.6751 61.3792 12.6865 61.5908 12.6865H61.8545ZM61.6543 12.6865H62.0449V14H61.6543V12.6865ZM63.4316 14.6543L64.2373 15.4551L63.4316 16.2656L62.626 15.4551L63.4316 14.6543ZM61.7812 14.6543L62.5967 15.4551L61.7812 16.2656L60.9854 15.4551L61.7812 14.6543ZM62.4746 14H61.9326V12.6865H62.4648C62.7806 12.6865 63.0117 12.6296 63.1582 12.5156C63.3079 12.3984 63.3828 12.1852 63.3828 11.876C63.3828 11.6969 63.3633 11.4642 63.3242 11.1777C63.2884 10.8913 63.2249 10.5723 63.1338 10.2207L64.3154 9.90332C64.3968 10.2223 64.457 10.5365 64.4961 10.8457C64.5384 11.1517 64.5596 11.4447 64.5596 11.7246C64.5596 12.1803 64.4945 12.5791 64.3643 12.9209C64.234 13.2594 64.0176 13.5247 63.7148 13.7168C63.4121 13.9056 62.9987 14 62.4746 14ZM66.6641 12.7061C66.9635 12.7061 67.2435 12.6833 67.5039 12.6377C67.7643 12.5921 67.9743 12.514 68.1338 12.4033C68.2933 12.2894 68.373 12.1315 68.373 11.9297C68.373 11.7246 68.2803 11.5081 68.0947 11.2803C67.9092 11.0524 67.6569 10.8245 67.3379 10.5967C67.0189 10.3656 66.6592 10.1523 66.2588 9.95703L66.8203 8.78516C67.1816 8.96419 67.5251 9.15951 67.8506 9.37109C68.1761 9.58268 68.4658 9.81543 68.7197 10.0693C68.9736 10.3232 69.1738 10.6016 69.3203 10.9043C69.4668 11.2038 69.54 11.5309 69.54 11.8857C69.54 12.3838 69.4261 12.7874 69.1982 13.0967C68.9736 13.4059 68.6514 13.6322 68.2314 13.7754C67.8148 13.9186 67.3167 13.9902 66.7373 13.9902C66.4867 13.9902 66.2507 13.9821 66.0293 13.9658C65.8112 13.9463 65.598 13.9137 65.3896 13.8682V12.5596C65.6012 12.6019 65.8226 12.6377 66.0537 12.667C66.2881 12.693 66.4915 12.7061 66.6641 12.7061Z" fill="#32006C"/>
<path d="M8 10.3712C8 7.95705 9.95705 6 12.3712 6V12.0383C12.3712 14.4524 10.4141 16.4094 8 16.4094V10.3712Z" fill="#4A3AFF"/>
<path d="M13.0053 8.37527C13.0053 7.06344 14.0687 6 15.3805 6C16.6924 6 17.7558 7.06344 17.7558 8.37527V8.51241C17.7558 9.82423 16.6924 10.8877 15.3805 10.8877C14.0687 10.8877 13.0053 9.82423 13.0053 8.51241V8.37527Z" fill="#4CBFFF"/>
<path d="M13.0053 13.8971C13.0053 12.5852 14.0687 11.5218 15.3805 11.5218C16.6924 11.5218 17.7558 12.5852 17.7558 13.8971V14.0342C17.7558 15.346 16.6924 16.4095 15.3805 16.4095C14.0687 16.4095 13.0053 15.346 13.0053 14.0342V13.8971Z" fill="#702DFF"/>
</g>
<defs>
<clipPath id="clip0_87_8042">
<rect width="75" height="23" fill="white"/>
</clipPath>
</defs>
</svg>
