<svg width="196" height="60" viewBox="0 0 196 60" fill="none" xmlns="http://www.w3.org/2000/svg">
<path d="M196 0H0V60H196V0Z" fill="white"/>
<path d="M79.9669 41.0945L81.9575 43.0816L79.9669 45.0689L77.9764 43.0816L79.9669 41.0945ZM82.1872 37.8464L84.1778 39.8335L82.1872 41.8205L80.1967 39.8335L82.1872 37.8464ZM77.7467 37.8464L79.7372 39.8335L77.7467 41.8205L75.7561 39.8335L77.7467 37.8464ZM81.8172 36.5217H79.1121C77.6147 36.5217 76.2495 36.4114 75.016 36.1904C73.7825 35.9614 72.7191 35.592 71.8259 35.0822C70.9326 34.5728 70.2435 33.8935 69.7587 33.0443C69.2737 32.1952 69.0312 31.1465 69.0312 29.898C69.0312 29.1678 69.1122 28.4588 69.2737 27.7709C69.4438 27.0746 69.6524 26.425 69.8991 25.822L72.7573 26.892C72.6128 27.2911 72.4724 27.7453 72.3363 28.255C72.2001 28.7559 72.1322 29.2401 72.1322 29.707C72.1322 30.3863 72.3065 30.9469 72.6554 31.3883C73.0126 31.8214 73.506 32.1655 74.1355 32.4201C74.7735 32.6663 75.5136 32.8406 76.3558 32.9423C77.2065 33.0443 78.1253 33.0952 79.1121 33.0952H81.8428C82.4893 33.0952 83.1231 33.0741 83.744 33.0315C84.3735 32.9807 84.9435 32.8829 85.4539 32.7386C85.9729 32.5943 86.3856 32.3778 86.6918 32.089C86.9979 31.8002 87.151 31.4139 87.151 30.9297C87.151 30.5478 87.0958 29.9575 86.9853 29.1592C86.8745 28.3609 86.7088 27.5288 86.4875 26.6627L89.5756 25.8475C89.7118 26.2636 89.8265 26.7647 89.9201 27.3506C90.0223 27.9365 90.0988 28.5182 90.1498 29.0956C90.2008 29.6645 90.2264 30.1529 90.2264 30.5603C90.2264 31.8172 90.0053 32.8362 89.5628 33.6175C89.1204 34.3988 88.5078 35.0016 87.7254 35.4263C86.9511 35.8424 86.0578 36.1312 85.0457 36.2924C84.0333 36.4453 82.9571 36.5217 81.8172 36.5217ZM93.0846 18.5997H96.3131V30.4714C96.3131 31.4309 96.4576 32.1102 96.7469 32.5093C97.0362 32.9001 97.602 33.0952 98.444 33.0952H98.7503V36.5217H98.444C96.5979 36.5217 95.2411 36.042 94.3735 35.0822C93.5142 34.1228 93.0846 32.6663 93.0846 30.7132V18.5997ZM109.89 18.485L111.881 20.4721L109.89 22.4592L107.9 20.4721L109.89 18.485ZM112.11 21.7332L114.101 23.7203L112.11 25.7074L110.12 23.7203L112.11 21.7332ZM107.67 21.7332L109.66 23.7203L107.67 25.7074L105.679 23.7203L107.67 21.7332ZM107.032 36.5217C106.147 36.5217 105.416 36.373 104.837 36.0759C104.267 35.7702 103.803 35.3627 103.446 34.8532C102.987 35.371 102.417 35.7788 101.736 36.0759C101.056 36.373 100.205 36.5217 99.1841 36.5217H98.2909V33.0952H99.2097C100.171 33.0952 100.881 32.9212 101.341 32.5729C101.8 32.2163 102.03 31.5795 102.03 30.6623C102.03 30.5264 102.021 30.3227 102.004 30.0509C101.987 29.7793 101.966 29.4736 101.94 29.1339C101.923 28.7942 101.902 28.4629 101.877 28.1402L104.863 27.7709L105.13 31.0062C105.156 31.3969 105.241 31.7536 105.386 32.0762C105.539 32.3903 105.751 32.641 106.024 32.8278C106.304 33.006 106.649 33.0952 107.057 33.0952C107.806 33.0952 108.338 32.8873 108.652 32.4712C108.967 32.0465 109.124 31.4436 109.124 30.6623C109.124 30.535 109.116 30.3355 109.099 30.0636C109.09 29.7835 109.073 29.4736 109.048 29.1339C109.023 28.7942 108.997 28.4629 108.971 28.1402L111.957 27.7709L112.225 31.0062C112.251 31.3714 112.323 31.7155 112.442 32.0379C112.561 32.3606 112.74 32.6196 112.978 32.815C113.225 33.0018 113.54 33.0952 113.923 33.0952C114.28 33.0952 114.565 32.9935 114.777 32.7895C114.99 32.5774 115.143 32.3014 115.237 31.9617C115.33 31.6135 115.377 31.2355 115.377 30.828C115.377 30.2504 115.305 29.5925 115.16 28.8535C115.016 28.1063 114.863 27.4101 114.701 26.7647L117.789 25.9494C117.993 26.7052 118.15 27.4651 118.261 28.2295C118.371 28.9852 118.427 29.7409 118.427 30.4967C118.427 31.5837 118.287 32.5857 118.006 33.5029C117.725 34.4116 117.261 35.1417 116.615 35.6937C115.968 36.2374 115.084 36.5131 113.961 36.5217C113.178 36.5217 112.519 36.3647 111.983 36.0503C111.447 35.7276 111.004 35.3202 110.656 34.8276C110.213 35.3371 109.682 35.749 109.061 36.0631C108.44 36.3689 107.763 36.5217 107.032 36.5217ZM135.156 43.069C133.318 43.069 131.813 42.7208 130.639 42.0245C129.473 41.3366 128.61 40.3982 128.048 39.2095C127.495 38.029 127.219 36.6957 127.219 35.2098C127.219 34.369 127.304 33.469 127.474 32.5093C127.653 31.5412 127.942 30.5264 128.342 29.4649L131.238 30.5731C130.932 31.4734 130.698 32.3014 130.537 33.0571C130.383 33.8129 130.307 34.4963 130.307 35.1078C130.307 35.94 130.451 36.7043 130.741 37.4006C131.039 38.0969 131.54 38.6533 132.246 39.0694C132.953 39.4855 133.922 39.6934 135.156 39.6934C136.491 39.6934 137.576 39.5491 138.41 39.2603C139.252 38.9715 139.869 38.6447 140.26 38.2795C140.651 37.9145 140.847 37.6171 140.847 37.3878C140.847 37.0737 140.694 36.8486 140.387 36.7127C140.09 36.5854 139.613 36.5217 138.958 36.5217H136.98C136.657 36.5217 136.449 36.4367 136.355 36.2669C136.27 36.097 136.185 35.8677 136.1 35.5792L135.602 33.7448C135.534 33.5327 135.521 33.3754 135.564 33.2736C135.607 33.1633 135.756 33.108 136.011 33.108H143.565V36.5217C143.633 36.7085 143.676 36.8614 143.693 36.9803C143.71 37.0993 143.718 37.2308 143.718 37.375C143.718 38.1141 143.531 38.8231 143.157 39.5024C142.782 40.1901 142.229 40.8015 141.498 41.3366C140.766 41.8716 139.869 42.2919 138.805 42.5976C137.742 42.9117 136.525 43.069 135.156 43.069ZM151.834 38.1141L154.041 40.3176L151.834 42.5212L149.626 40.3176L151.834 38.1141ZM161.646 33.0952V36.5217H160.906C159.851 36.5217 158.937 36.4156 158.163 36.2032C157.389 35.9909 156.759 35.6512 156.274 35.1842C155.789 34.7173 155.441 34.1058 155.228 33.3501C154.173 33.919 153.101 34.4455 152.012 34.9294C150.923 35.4049 149.813 35.7915 148.682 36.0887C147.559 36.3775 146.402 36.5217 145.211 36.5217H143.106V33.0952H145.249C146.398 33.0952 147.474 32.9679 148.478 32.713C149.49 32.4584 150.515 32.1018 151.553 31.6432C152.599 31.176 153.735 30.6284 154.96 30C154.645 29.8641 154.292 29.7198 153.901 29.5669C153.518 29.4141 153.135 29.2654 152.752 29.1211C152.378 28.9682 152.046 28.8409 151.757 28.7389C151.459 28.62 151.191 28.5224 150.953 28.446C150.723 28.3609 150.524 28.2973 150.353 28.255C150.192 28.2125 150.06 28.1911 149.958 28.1911C149.481 28.1911 149.026 28.3398 148.593 28.6369C148.167 28.9257 147.827 29.2356 147.572 29.5669L146.959 30.3313L144.28 29.0191L144.777 28.2167C145.364 27.2486 146.1 26.4503 146.985 25.822C147.869 25.1936 148.865 24.8794 149.971 24.8794C150.728 24.8794 151.451 25.0153 152.14 25.287C152.837 25.5503 153.539 25.856 154.245 26.2041C155.003 26.5779 155.662 26.8878 156.223 27.1341C156.785 27.3717 157.287 27.5671 157.729 27.72C158.18 27.8642 158.618 27.9746 159.043 28.051C159.469 28.1191 159.928 28.1658 160.421 28.1911V31.3502C159.962 31.3928 159.511 31.4734 159.069 31.5923C158.626 31.7027 158.129 31.8767 157.576 32.1143C157.669 32.3522 157.874 32.5476 158.188 32.7005C158.511 32.8448 158.916 32.9468 159.401 33.006C159.886 33.0655 160.404 33.0952 160.957 33.0952H161.646ZM161.123 33.0952H162.144V36.5217H161.123V33.0952ZM165.768 38.2286L167.873 40.3176L165.768 42.432L163.663 40.3176L165.768 38.2286ZM161.455 38.2286L163.586 40.3176L161.455 42.432L159.375 40.3176L161.455 38.2286ZM163.267 36.5217H161.851V33.0952H163.241C164.067 33.0952 164.671 32.9468 165.053 32.6494C165.445 32.3436 165.64 31.7875 165.64 30.9809C165.64 30.5136 165.589 29.9066 165.487 29.1592C165.394 28.4121 165.228 27.5799 164.99 26.6627L168.078 25.8347C168.29 26.6669 168.448 27.4865 168.55 28.2931C168.66 29.0914 168.716 29.8557 168.716 30.5859C168.716 31.7747 168.546 32.815 168.205 33.7067C167.865 34.5897 167.299 35.2818 166.508 35.7829C165.717 36.2755 164.637 36.5217 163.267 36.5217ZM174.215 33.1463C174.998 33.1463 175.73 33.0869 176.41 32.9679C177.091 32.8489 177.639 32.6452 178.056 32.3564C178.473 32.0593 178.681 31.6474 178.681 31.1209C178.681 30.5859 178.439 30.0211 177.954 29.4269C177.469 28.8323 176.81 28.2378 175.976 27.6435C175.143 27.0407 174.203 26.4842 173.156 25.9748L174.624 22.9178C175.568 23.3848 176.466 23.8944 177.316 24.4463C178.167 24.9983 178.924 25.6055 179.587 26.2677C180.251 26.9301 180.774 27.6563 181.157 28.446C181.54 29.2273 181.731 30.0806 181.731 31.0062C181.731 32.3056 181.434 33.3584 180.838 34.1653C180.251 34.9719 179.409 35.5622 178.311 35.9358C177.223 36.3094 175.921 36.4962 174.407 36.4962C173.752 36.4962 173.135 36.475 172.557 36.4325C171.987 36.3816 171.429 36.2966 170.885 36.1779V32.7642C171.438 32.8745 172.016 32.9679 172.62 33.0443C173.233 33.1122 173.764 33.1463 174.215 33.1463Z" fill="#32006C"/>
<path d="M20.9067 27.0553C20.9067 20.7575 26.0211 15.6522 32.3301 15.6522V31.4042C32.3301 37.7019 27.2155 42.8071 20.9067 42.8071V27.0553Z" fill="#4A3AFF"/>
<path d="M33.9872 21.8485C33.9872 18.4264 36.7662 15.6522 40.1944 15.6522C43.6228 15.6522 46.4018 18.4264 46.4018 21.8485V22.2063C46.4018 25.6284 43.6228 28.4027 40.1944 28.4027C36.7662 28.4027 33.9872 25.6284 33.9872 22.2063V21.8485Z" fill="#4CBFFF"/>
<path d="M33.9872 36.253C33.9872 32.831 36.7662 30.0566 40.1944 30.0566C43.6228 30.0566 46.4018 32.831 46.4018 36.253V36.6107C46.4018 40.033 43.6228 42.8071 40.1944 42.8071C36.7662 42.8071 33.9872 40.033 33.9872 36.6107V36.253Z" fill="#702DFF"/>
</svg>
