<svg width="72" height="17" viewBox="0 0 72 17" fill="none" xmlns="http://www.w3.org/2000/svg">
<g clip-path="url(#clip0_5_19)">
<path d="M3.47778 9.27753V10.2111H12.0778V9.25555L3.47778 9.27753Z" fill="#D8D8D8"/>
<mask id="mask0_5_19" style="mask-type:luminance" maskUnits="userSpaceOnUse" x="3" y="9" width="10" height="2">
<path d="M3.47778 9.27753V10.2111H12.0778V9.25555L3.47778 9.27753Z" fill="#FFA0A0"/>
</mask>
<g mask="url(#mask0_5_19)">
<path d="M13.5111 2.56665H2.04443V14.0333H13.5111V2.56665Z" fill="#FFA0A0"/>
</g>
<path d="M8.25555 10.2111H9.2111H11.6V8.77777H3.95555V10.2111H6.34444H7.29999H8.25555ZM8.25555 11.1667H7.29999V11.6444H8.25555V11.1667ZM9.2111 11.1667V11.6444H9.68888C9.95275 11.6444 10.1667 11.8583 10.1667 12.1222C10.1667 12.3861 9.95275 12.6 9.68888 12.6H5.86666C5.60279 12.6 5.38888 12.3861 5.38888 12.1222C5.38888 11.8583 5.60279 11.6444 5.86666 11.6444H6.34444V11.1667H3.95555C3.42782 11.1667 3 10.7388 3 10.2111V4.95555C3 4.42782 3.42782 4 3.95555 4H11.6C12.1277 4 12.5555 4.42782 12.5555 4.95555V10.2111C12.5555 10.7388 12.1277 11.1667 11.6 11.1667H9.2111ZM11.6 7.82222V4.95555H3.95555V7.82222H11.6Z" fill="black"/>
<mask id="mask1_5_19" style="mask-type:luminance" maskUnits="userSpaceOnUse" x="3" y="4" width="10" height="9">
<path d="M8.25555 10.2111H9.2111H11.6V8.77777H3.95555V10.2111H6.34444H7.29999H8.25555ZM8.25555 11.1667H7.29999V11.6444H8.25555V11.1667ZM9.2111 11.1667V11.6444H9.68888C9.95275 11.6444 10.1667 11.8583 10.1667 12.1222C10.1667 12.3861 9.95275 12.6 9.68888 12.6H5.86666C5.60279 12.6 5.38888 12.3861 5.38888 12.1222C5.38888 11.8583 5.60279 11.6444 5.86666 11.6444H6.34444V11.1667H3.95555C3.42782 11.1667 3 10.7388 3 10.2111V4.95555C3 4.42782 3.42782 4 3.95555 4H11.6C12.1277 4 12.5555 4.42782 12.5555 4.95555V10.2111C12.5555 10.7388 12.1277 11.1667 11.6 11.1667H9.2111ZM11.6 7.82222V4.95555H3.95555V7.82222H11.6Z" fill="#7600FF"/>
</mask>
<g mask="url(#mask1_5_19)">
<path d="M13.5111 2.56665H2.04443V14.0333H13.5111V2.56665Z" fill="#7600FF"/>
</g>
<path d="M20.6917 11.252L21.0037 10.268C21.9397 10.268 22.7437 10.244 23.4157 10.196C24.0957 10.148 24.6517 10.072 25.0837 9.968C25.5237 9.856 25.8477 9.708 26.0557 9.524C26.2717 9.332 26.3797 9.1 26.3797 8.828C26.3797 8.524 26.3237 8.172 26.2117 7.772C26.0997 7.372 25.9557 6.944 25.7797 6.488L26.7037 6.164C26.8077 6.42 26.9037 6.696 26.9917 6.992C27.0877 7.28 27.1677 7.568 27.2317 7.856C27.2957 8.136 27.3277 8.396 27.3277 8.636C27.3277 9.108 27.2197 9.512 27.0037 9.848C26.7877 10.176 26.4277 10.444 25.9237 10.652C25.4197 10.86 24.7397 11.012 23.8837 11.108C23.0357 11.204 21.9717 11.252 20.6917 11.252ZM20.6917 11.252C19.9797 11.252 19.3517 11.204 18.8077 11.108C18.2717 11.02 17.8237 10.88 17.4637 10.688C17.1037 10.496 16.8317 10.248 16.6477 9.944C16.4637 9.632 16.3717 9.256 16.3717 8.816C16.3717 8.616 16.3877 8.412 16.4197 8.204C16.4517 7.988 16.4917 7.772 16.5397 7.556C16.5957 7.34 16.6517 7.132 16.7077 6.932L17.6077 7.16C17.5757 7.28 17.5397 7.424 17.4997 7.592C17.4597 7.752 17.4237 7.916 17.3917 8.084C17.3677 8.252 17.3557 8.404 17.3557 8.54C17.3557 8.956 17.4597 9.292 17.6677 9.548C17.8837 9.796 18.2557 9.98 18.7837 10.1C19.3117 10.212 20.0517 10.268 21.0037 10.268L21.2437 10.868L20.6917 11.252ZM21.8317 14.9C21.6717 14.9 21.5317 14.84 21.4117 14.72C21.2997 14.6 21.2437 14.46 21.2437 14.3C21.2437 14.14 21.2997 14 21.4117 13.88C21.5317 13.768 21.6717 13.712 21.8317 13.712C21.9997 13.712 22.1397 13.768 22.2517 13.88C22.3717 14 22.4317 14.14 22.4317 14.3C22.4317 14.46 22.3717 14.6 22.2517 14.72C22.1397 14.84 21.9997 14.9 21.8317 14.9ZM22.6477 13.58C22.4877 13.58 22.3477 13.52 22.2277 13.4C22.1157 13.28 22.0597 13.14 22.0597 12.98C22.0597 12.82 22.1157 12.68 22.2277 12.56C22.3477 12.448 22.4877 12.392 22.6477 12.392C22.8157 12.392 22.9557 12.448 23.0677 12.56C23.1877 12.68 23.2477 12.82 23.2477 12.98C23.2477 13.14 23.1877 13.28 23.0677 13.4C22.9557 13.52 22.8157 13.58 22.6477 13.58ZM21.0157 13.58C20.8557 13.58 20.7157 13.52 20.5957 13.4C20.4837 13.28 20.4277 13.14 20.4277 12.98C20.4277 12.82 20.4837 12.68 20.5957 12.56C20.7157 12.448 20.8557 12.392 21.0157 12.392C21.1837 12.392 21.3237 12.448 21.4357 12.56C21.5557 12.68 21.6157 12.82 21.6157 12.98C21.6157 13.14 21.5557 13.28 21.4357 13.4C21.3237 13.52 21.1837 13.58 21.0157 13.58ZM31.4217 11.06C30.7817 11.06 30.2897 10.988 29.9457 10.844C29.6097 10.7 29.3777 10.476 29.2497 10.172C29.1217 9.868 29.0497 9.476 29.0337 8.996L28.7937 2.432H29.7777L30.0177 8.612C30.0337 9.004 30.0697 9.308 30.1257 9.524C30.1897 9.732 30.3257 9.876 30.5337 9.956C30.7497 10.036 31.0857 10.076 31.5417 10.076C31.7097 10.076 31.8297 10.124 31.9017 10.22C31.9817 10.308 32.0217 10.416 32.0217 10.544C32.0217 10.672 31.9657 10.792 31.8537 10.904C31.7417 11.008 31.5977 11.06 31.4217 11.06ZM31.4219 11.06L31.5419 10.076C31.7979 10.076 32.0059 10.06 32.1659 10.028C32.3259 9.988 32.4579 9.896 32.5619 9.752C32.6739 9.6 32.7779 9.364 32.8739 9.044C32.9699 8.724 33.0819 8.276 33.2099 7.7L34.1099 7.952C34.0779 8.088 34.0419 8.244 34.0019 8.42C33.9619 8.588 33.9259 8.764 33.8939 8.948C33.8619 9.124 33.8459 9.288 33.8459 9.44C33.8459 9.64 33.9219 9.796 34.0739 9.908C34.2259 10.02 34.5019 10.076 34.9019 10.076C35.1419 10.076 35.3379 10.056 35.4899 10.016C35.6419 9.976 35.7659 9.88 35.8619 9.728C35.9659 9.576 36.0579 9.332 36.1379 8.996C36.2179 8.66 36.3019 8.2 36.3899 7.616L37.3019 7.784C37.2779 7.928 37.2499 8.104 37.2179 8.312C37.1859 8.52 37.1539 8.728 37.1219 8.936C37.0979 9.136 37.0859 9.304 37.0859 9.44C37.0859 9.552 37.1099 9.66 37.1579 9.764C37.2139 9.86 37.3179 9.936 37.4699 9.992C37.6299 10.048 37.8659 10.076 38.1779 10.076C38.4099 10.076 38.6099 10.048 38.7779 9.992C38.9539 9.936 39.0859 9.832 39.1739 9.68C39.2699 9.528 39.3179 9.316 39.3179 9.044C39.3179 8.74 39.2459 8.36 39.1019 7.904C38.9659 7.44 38.8099 6.98 38.6339 6.524L39.6059 6.164C39.7099 6.42 39.8059 6.712 39.8939 7.04C39.9899 7.368 40.0699 7.692 40.1339 8.012C40.1979 8.332 40.2299 8.612 40.2299 8.852C40.2299 9.22 40.1819 9.544 40.0859 9.824C39.9899 10.104 39.8539 10.336 39.6779 10.52C39.5019 10.696 39.2859 10.832 39.0299 10.928C38.7739 11.016 38.4859 11.06 38.1659 11.06C37.7899 11.06 37.4819 11.016 37.2419 10.928C37.0019 10.84 36.8179 10.708 36.6899 10.532C36.5619 10.348 36.4779 10.116 36.4379 9.836H36.8459C36.6939 10.18 36.5339 10.44 36.3659 10.616C36.1979 10.792 35.9899 10.912 35.7419 10.976C35.4939 11.032 35.1659 11.06 34.7579 11.06C34.5579 11.06 34.3419 11.028 34.1099 10.964C33.8859 10.9 33.6899 10.776 33.5219 10.592C33.3539 10.4 33.2539 10.116 33.2219 9.74L33.5819 9.668C33.4459 10.076 33.2779 10.38 33.0779 10.58C32.8859 10.772 32.6539 10.9 32.3819 10.964C32.1099 11.028 31.7899 11.06 31.4219 11.06ZM36.5939 4.46C36.4259 4.46 36.2819 4.404 36.1619 4.292C36.0499 4.172 35.9939 4.032 35.9939 3.872C35.9939 3.712 36.0499 3.572 36.1619 3.452C36.2819 3.332 36.4259 3.272 36.5939 3.272C36.7539 3.272 36.8899 3.332 37.0019 3.452C37.1219 3.572 37.1819 3.712 37.1819 3.872C37.1819 4.032 37.1219 4.172 37.0019 4.292C36.8899 4.404 36.7539 4.46 36.5939 4.46ZM35.7779 5.78C35.6099 5.78 35.4659 5.724 35.3459 5.612C35.2339 5.492 35.1779 5.352 35.1779 5.192C35.1779 5.032 35.2339 4.892 35.3459 4.772C35.4659 4.652 35.6099 4.592 35.7779 4.592C35.9379 4.592 36.0739 4.652 36.1859 4.772C36.3059 4.892 36.3659 5.032 36.3659 5.192C36.3659 5.352 36.3059 5.492 36.1859 5.612C36.0739 5.724 35.9379 5.78 35.7779 5.78ZM37.4099 5.78C37.2419 5.78 37.0979 5.724 36.9779 5.612C36.8659 5.492 36.8099 5.352 36.8099 5.192C36.8099 5.032 36.8659 4.892 36.9779 4.772C37.0979 4.652 37.2419 4.592 37.4099 4.592C37.5699 4.592 37.7059 4.652 37.8179 4.772C37.9379 4.892 37.9979 5.032 37.9979 5.192C37.9979 5.352 37.9379 5.492 37.8179 5.612C37.7059 5.724 37.5699 5.78 37.4099 5.78ZM44.567 11.012C44.567 10.82 44.583 10.616 44.615 10.4C44.655 10.176 44.711 9.94 44.783 9.692C44.863 9.436 44.959 9.168 45.071 8.888L45.935 9.224C45.855 9.448 45.783 9.66 45.719 9.86C45.663 10.06 45.619 10.248 45.587 10.424C45.563 10.6 45.551 10.768 45.551 10.928C45.551 11.264 45.623 11.548 45.767 11.78C45.919 12.02 46.127 12.216 46.391 12.368C46.655 12.52 46.955 12.632 47.291 12.704C47.635 12.776 47.999 12.812 48.383 12.812C48.847 12.812 49.279 12.772 49.679 12.692C50.087 12.612 50.443 12.496 50.747 12.344C51.059 12.2 51.303 12.032 51.479 11.84C51.655 11.656 51.743 11.456 51.743 11.24C51.743 11.136 51.703 11.04 51.623 10.952C51.543 10.864 51.423 10.78 51.263 10.7C51.103 10.62 50.911 10.544 50.687 10.472C50.463 10.392 50.207 10.312 49.919 10.232L50.147 9.236C50.563 9.396 50.931 9.532 51.251 9.644C51.571 9.748 51.851 9.832 52.091 9.896C52.331 9.96 52.539 10.008 52.715 10.04C52.891 10.064 53.039 10.076 53.159 10.076C53.327 10.076 53.447 10.124 53.519 10.22C53.599 10.308 53.639 10.416 53.639 10.544C53.639 10.672 53.583 10.792 53.471 10.904C53.359 11.008 53.215 11.06 53.039 11.06C52.991 11.06 52.943 11.06 52.895 11.06C52.847 11.06 52.795 11.06 52.739 11.06C52.691 11.06 52.643 11.06 52.595 11.06C52.611 11.132 52.623 11.188 52.631 11.228C52.639 11.276 52.643 11.336 52.643 11.408C52.643 11.704 52.539 11.992 52.331 12.272C52.131 12.552 51.835 12.804 51.443 13.028C51.051 13.26 50.575 13.444 50.015 13.58C49.463 13.716 48.831 13.784 48.119 13.784C47.487 13.784 46.899 13.68 46.355 13.472C45.819 13.272 45.387 12.968 45.059 12.56C44.731 12.152 44.567 11.636 44.567 11.012ZM60.687 11.06C60.351 11.06 60.043 11.04 59.763 11C59.483 10.952 59.231 10.868 59.007 10.748C58.783 10.628 58.595 10.456 58.443 10.232C58.291 10 58.175 9.696 58.095 9.32L58.803 8.9C58.907 9.22 59.035 9.464 59.187 9.632C59.339 9.8 59.543 9.916 59.799 9.98C60.063 10.044 60.399 10.076 60.807 10.076C60.975 10.076 61.095 10.124 61.167 10.22C61.247 10.308 61.287 10.416 61.287 10.544C61.287 10.672 61.231 10.792 61.119 10.904C61.007 11.008 60.863 11.06 60.687 11.06ZM53.043 11.06L53.151 10.076C53.567 10.076 53.975 10.044 54.375 9.98C54.775 9.916 55.167 9.824 55.551 9.704C55.935 9.584 56.303 9.44 56.655 9.272C57.015 9.096 57.355 8.896 57.675 8.672C57.467 8.488 57.227 8.328 56.955 8.192C56.683 8.056 56.383 7.952 56.055 7.88C55.735 7.8 55.395 7.76 55.035 7.76C54.907 7.76 54.787 7.764 54.675 7.772C54.563 7.78 54.451 7.796 54.339 7.82C54.227 7.836 54.099 7.86 53.955 7.892L53.763 6.98C53.979 6.916 54.195 6.868 54.411 6.836C54.627 6.796 54.835 6.776 55.035 6.776C55.451 6.776 55.827 6.828 56.163 6.932C56.499 7.028 56.803 7.148 57.075 7.292C57.355 7.436 57.615 7.58 57.855 7.724C58.103 7.868 58.343 7.992 58.575 8.096C58.807 8.192 59.047 8.24 59.295 8.24H59.547L59.631 9.104C59.287 9.104 58.971 9.152 58.683 9.248C58.395 9.344 58.111 9.468 57.831 9.62C57.559 9.764 57.271 9.92 56.967 10.088C56.663 10.248 56.327 10.404 55.959 10.556C55.591 10.7 55.167 10.82 54.687 10.916C54.215 11.012 53.667 11.06 53.043 11.06ZM56.175 13.232C56.007 13.232 55.863 13.172 55.743 13.052C55.631 12.94 55.575 12.804 55.575 12.644C55.575 12.484 55.631 12.344 55.743 12.224C55.863 12.104 56.007 12.044 56.175 12.044C56.335 12.044 56.471 12.104 56.583 12.224C56.703 12.344 56.763 12.484 56.763 12.644C56.763 12.804 56.703 12.94 56.583 13.052C56.471 13.172 56.335 13.232 56.175 13.232ZM60.6836 11.06L60.8036 10.076C61.2756 10.076 61.6436 10.06 61.9076 10.028C62.1716 9.988 62.3596 9.896 62.4716 9.752C62.5836 9.6 62.6396 9.364 62.6396 9.044C62.6396 8.844 62.6076 8.608 62.5436 8.336C62.4796 8.056 62.3956 7.76 62.2916 7.448C62.1876 7.136 62.0756 6.828 61.9556 6.524L62.9276 6.164C63.0316 6.42 63.1276 6.712 63.2156 7.04C63.3116 7.368 63.3916 7.692 63.4556 8.012C63.5196 8.332 63.5516 8.612 63.5516 8.852C63.5516 9.252 63.4956 9.592 63.3836 9.872C63.2796 10.152 63.1116 10.38 62.8796 10.556C62.6476 10.732 62.3476 10.86 61.9796 10.94C61.6196 11.02 61.1876 11.06 60.6836 11.06ZM62.9036 13.328C62.7356 13.328 62.5916 13.268 62.4716 13.148C62.3596 13.036 62.3036 12.9 62.3036 12.74C62.3036 12.58 62.3596 12.44 62.4716 12.32C62.5916 12.2 62.7356 12.14 62.9036 12.14C63.0636 12.14 63.1996 12.2 63.3116 12.32C63.4316 12.44 63.4916 12.58 63.4916 12.74C63.4916 12.9 63.4316 13.036 63.3116 13.148C63.1996 13.268 63.0636 13.328 62.9036 13.328ZM61.2596 13.328C61.0916 13.328 60.9476 13.268 60.8276 13.148C60.7156 13.036 60.6596 12.9 60.6596 12.74C60.6596 12.58 60.7156 12.44 60.8276 12.32C60.9476 12.2 61.0916 12.14 61.2596 12.14C61.4196 12.14 61.5556 12.2 61.6676 12.32C61.7876 12.44 61.8476 12.58 61.8476 12.74C61.8476 12.9 61.7876 13.036 61.6676 13.148C61.5556 13.268 61.4196 13.328 61.2596 13.328ZM64.6895 10.46L65.1695 9.632C65.3295 9.736 65.5535 9.836 65.8415 9.932C66.1295 10.028 66.4655 10.076 66.8495 10.076C67.2495 10.076 67.5655 10.036 67.7975 9.956C68.0375 9.876 68.2095 9.76 68.3135 9.608C68.4255 9.448 68.4815 9.264 68.4815 9.056C68.4815 8.896 68.4455 8.7 68.3735 8.468C68.3095 8.228 68.1655 7.908 67.9415 7.508C67.7175 7.1 67.3735 6.568 66.9095 5.912L67.7375 5.372C68.1615 5.956 68.4975 6.484 68.7455 6.956C69.0015 7.428 69.1815 7.844 69.2855 8.204C69.3975 8.556 69.4535 8.86 69.4535 9.116C69.4535 9.436 69.3735 9.748 69.2135 10.052C69.0535 10.348 68.7855 10.592 68.4095 10.784C68.0335 10.976 67.5135 11.072 66.8495 11.072C66.5615 11.072 66.2815 11.048 66.0095 11C65.7455 10.952 65.5015 10.884 65.2775 10.796C65.0535 10.7 64.8575 10.588 64.6895 10.46Z" fill="#32006C"/>
</g>
<defs>
<clipPath id="clip0_5_19">
<rect width="72" height="17" fill="white"/>
</clipPath>
</defs>
</svg>
