<svg width="46" height="49" viewBox="0 0 46 49" fill="none" xmlns="http://www.w3.org/2000/svg">
<path d="M2.26324 13.217L2.93055 13.5593L2.26324 13.217ZM2.83143 12.2328L3.46155 12.6396L2.83143 12.2328ZM11.9155 43.342L11.5405 43.9915L11.9155 43.342ZM2.83143 36.6386L2.2013 37.0453L2.83143 36.6386ZM2.26324 35.6545L2.93055 35.3121L2.26324 35.6545ZM33.7466 43.342L34.1216 43.9915L33.7466 43.342ZM23.3992 47.8574L23.3621 47.1083L23.3992 47.8574ZM22.2629 47.8574L22.3001 47.1083L22.2629 47.8574ZM43.3989 35.6545L42.7316 35.3121L43.3989 35.6545ZM42.8307 36.6386L42.2006 36.2319L42.2006 36.2319L42.8307 36.6386ZM42.8307 12.2328L42.2006 12.6396L42.2006 12.6396L42.8307 12.2328ZM43.3989 13.217L42.7316 13.5593L43.3989 13.217ZM23.3992 1.0141L23.3621 1.76317L23.3992 1.0141ZM22.2629 1.0141L22.3001 1.76317L22.2629 1.0141ZM38.497 40.1629L37.7778 40.3758L37.7836 40.3954L37.7904 40.4146L38.497 40.1629ZM7.14903 40.2181L6.42855 40.0097L6.41885 40.0433L6.41231 40.0776L7.14903 40.2181ZM31.2477 17.5607C31.2477 22.2091 27.4795 25.9774 22.8311 25.9774V27.4774C28.3079 27.4774 32.7477 23.0375 32.7477 17.5607H31.2477ZM22.8311 25.9774C18.1827 25.9774 14.4144 22.2091 14.4144 17.5607H12.9144C12.9144 23.0375 17.3542 27.4774 22.8311 27.4774V25.9774ZM14.4144 17.5607C14.4144 12.9123 18.1827 9.14406 22.8311 9.14406V7.64406C17.3542 7.64406 12.9144 12.0839 12.9144 17.5607H14.4144ZM22.8311 9.14406C27.4795 9.14406 31.2477 12.9123 31.2477 17.5607H32.7477C32.7477 12.0839 28.3079 7.64406 22.8311 7.64406V9.14406ZM1.75 24.4357C1.75 21.5038 1.75069 19.3536 1.90493 17.6275C2.05789 15.9156 2.35847 14.6745 2.93055 13.5593L1.59592 12.8746C0.904772 14.2219 0.573729 15.6714 0.410881 17.494C0.249311 19.3022 0.25 21.5301 0.25 24.4357H1.75ZM11.5405 4.87995C9.02419 6.33276 7.09439 7.44614 5.60922 8.49016C4.11231 9.54245 3.02251 10.5539 2.2013 11.8261L3.46155 12.6396C4.14129 11.5866 5.06582 10.7057 6.47186 9.7173C7.88965 8.72064 9.75142 7.64495 12.2905 6.17899L11.5405 4.87995ZM2.93055 13.5593C3.09223 13.2441 3.26945 12.9372 3.46155 12.6396L2.2013 11.8261C1.98229 12.1654 1.78025 12.5153 1.59592 12.8746L2.93055 13.5593ZM0.25 24.4357C0.25 27.3413 0.249311 29.5693 0.410881 31.3775C0.573729 33.2 0.904772 34.6495 1.59592 35.9968L2.93055 35.3121C2.35847 34.197 2.05789 32.9559 1.90493 31.244C1.75069 29.5178 1.75 27.3676 1.75 24.4357H0.25ZM3.46155 36.2319C3.26945 35.9343 3.09223 35.6273 2.93055 35.3121L1.59592 35.9968C1.78025 36.3561 1.98229 36.7061 2.2013 37.0453L3.46155 36.2319ZM33.3716 42.6925C30.8325 44.1584 28.97 45.2329 27.398 45.9624C25.839 46.6859 24.6139 47.0461 23.3621 47.1083L23.4364 48.6064C24.9488 48.5313 26.3696 48.0933 28.0294 47.3231C29.6761 46.5589 31.6053 45.4443 34.1216 43.9915L33.3716 42.6925ZM11.5405 43.9915C14.0569 45.4443 15.986 46.5589 17.6327 47.3231C19.2925 48.0933 20.7133 48.5313 22.2257 48.6064L22.3001 47.1083C21.0482 47.0461 19.8231 46.6859 18.2641 45.9624C16.6921 45.2329 14.8296 44.1584 12.2905 42.6925L11.5405 43.9915ZM23.3621 47.1083C23.0083 47.1258 22.6538 47.1258 22.3001 47.1083L22.2257 48.6064C22.629 48.6265 23.0331 48.6265 23.4364 48.6064L23.3621 47.1083ZM43.9121 24.4357C43.9121 27.3676 43.9114 29.5178 43.7572 31.244C43.6042 32.9559 43.3036 34.197 42.7316 35.3121L44.0662 35.9968C44.7573 34.6495 45.0884 33.2 45.2512 31.3775C45.4128 29.5693 45.4121 27.3413 45.4121 24.4357H43.9121ZM42.7316 35.3121C42.5699 35.6273 42.3927 35.9343 42.2006 36.2319L43.4608 37.0453C43.6798 36.7061 43.8819 36.3561 44.0662 35.9968L42.7316 35.3121ZM33.3716 6.17899C35.9107 7.64495 37.7725 8.72064 39.1903 9.7173C40.5963 10.7057 41.5208 11.5866 42.2006 12.6396L43.4608 11.8261C42.6396 10.5539 41.5498 9.54245 40.0529 8.49016C38.5677 7.44614 36.6379 6.33276 34.1216 4.87995L33.3716 6.17899ZM45.4121 24.4357C45.4121 21.5301 45.4128 19.3022 45.2512 17.494C45.0884 15.6714 44.7573 14.2219 44.0662 12.8746L42.7316 13.5593C43.3036 14.6745 43.6042 15.9156 43.7572 17.6275C43.9114 19.3536 43.9121 21.5038 43.9121 24.4357H45.4121ZM42.2006 12.6396C42.3927 12.9372 42.5699 13.2441 42.7316 13.5593L44.0662 12.8746C43.8819 12.5153 43.6798 12.1654 43.4608 11.8261L42.2006 12.6396ZM34.1216 4.87995C31.6053 3.42715 29.6761 2.31258 28.0294 1.5484C26.3696 0.778174 24.9488 0.340105 23.4364 0.265019L23.3621 1.76317C24.6139 1.82532 25.839 2.18557 27.398 2.90903C28.97 3.63854 30.8325 4.71304 33.3716 6.17899L34.1216 4.87995ZM12.2905 6.17899C14.8296 4.71304 16.6921 3.63854 18.2641 2.90903C19.8231 2.18557 21.0482 1.82532 22.3001 1.76317L22.2257 0.265019C20.7133 0.340105 19.2925 0.778174 17.6327 1.5484C15.986 2.31258 14.0569 3.42715 11.5405 4.87995L12.2905 6.17899ZM23.4364 0.265019C23.0331 0.244994 22.629 0.244994 22.2257 0.265019L22.3001 1.76317C22.6538 1.74561 23.0083 1.74561 23.3621 1.76317L23.4364 0.265019ZM15.9561 34.3524H29.7061V32.8524H15.9561V34.3524ZM29.7061 34.3524C33.5221 34.3524 36.7467 36.8925 37.7778 40.3758L39.2161 39.9501C38.0016 35.8471 34.2046 32.8524 29.7061 32.8524V34.3524ZM34.1216 43.9915C36.0893 42.8555 37.6954 41.9284 39.0065 41.0834L38.194 39.8226C36.9205 40.6433 35.3504 41.55 33.3716 42.6925L34.1216 43.9915ZM39.0065 41.0834C41.0575 39.7616 42.4597 38.5962 43.4608 37.0453L42.2006 36.2319C41.3714 37.5163 40.1802 38.5425 38.194 39.8226L39.0065 41.0834ZM37.7904 40.4146L37.8937 40.7046L39.3068 40.2013L39.2035 39.9113L37.7904 40.4146ZM15.9561 32.8524C11.4358 32.8524 7.62376 35.8761 6.42855 40.0097L7.86952 40.4264C8.88419 36.9172 12.1216 34.3524 15.9561 34.3524V32.8524ZM12.2905 42.6925C10.331 41.5612 8.77223 40.661 7.50518 39.8464L6.69402 41.1081C7.99785 41.9463 9.59187 42.8664 11.5405 43.9915L12.2905 42.6925ZM7.50518 39.8464C5.49676 38.5552 4.29587 37.5244 3.46155 36.2319L2.2013 37.0453C3.20856 38.6058 4.62209 39.7761 6.69402 41.1081L7.50518 39.8464ZM6.41231 40.0776L6.36288 40.3368L7.83632 40.6178L7.88575 40.3586L6.41231 40.0776Z" fill="#F47458"/>
</svg>
