<svg width="24" height="21" viewBox="0 0 24 21" fill="none" xmlns="http://www.w3.org/2000/svg">
<path d="M1.72571 0.727323C1.62114 0.326525 1.21146 0.0863819 0.810666 0.190948C0.409869 0.295514 0.169725 0.705193 0.274292 1.10599L1.72571 0.727323ZM5.76564 15.086L6.20419 14.4775L5.76564 15.086ZM3.02129 8.82458L3.74888 8.64262L3.02129 8.82458ZM5.58574 14.95L6.05141 14.3621L6.05141 14.3621L5.58574 14.95ZM22.0192 9.29492L22.7468 9.47689L22.0192 9.29492ZM19.8897 14.6759L19.3758 14.1297L19.3758 14.1297L19.8897 14.6759ZM19.0404 15.3179L19.4263 15.961L19.0404 15.3179ZM21.9421 5.47447L22.4452 4.91821L21.9421 5.47447ZM22.3038 5.91403L22.9472 5.52856L22.3038 5.91403ZM14.0001 8.79166C13.5859 8.79166 13.2501 9.12744 13.2501 9.54166C13.2501 9.95587 13.5859 10.2917 14.0001 10.2917L14.0001 8.79166ZM17.0001 11.6667C16.5859 11.6667 16.2501 12.0024 16.2501 12.4167C16.2501 12.8309 16.5859 13.1667 17.0001 13.1667V11.6667ZM2.05273 5.70174H18.445V4.20174H2.05273V5.70174ZM13.0837 15.2982H12.5791V16.7982H13.0837V15.2982ZM3.74888 8.64262L2.78033 4.76978L1.32514 5.13371L2.2937 9.00654L3.74888 8.64262ZM2.77844 4.76241L1.72571 0.727323L0.274292 1.10599L1.32703 5.14108L2.77844 4.76241ZM12.5791 15.2982C10.7359 15.2982 9.41523 15.2972 8.38639 15.1826C7.37454 15.0699 6.72683 14.8543 6.20419 14.4775L5.32709 15.6944C6.13945 16.2799 7.07231 16.5455 8.22035 16.6733C9.35139 16.7993 10.7699 16.7982 12.5791 16.7982V15.2982ZM2.2937 9.00654C2.71488 10.6907 3.04568 12.0186 3.43926 13.0489C3.84047 14.0992 4.33295 14.9145 5.12006 15.5379L6.05141 14.3621C5.55093 13.9657 5.1868 13.4201 4.8405 12.5136C4.48656 11.5871 4.17893 10.3622 3.74888 8.64262L2.2937 9.00654ZM6.20419 14.4775C6.15232 14.4402 6.10138 14.4017 6.05141 14.3621L5.12006 15.5379C5.18784 15.5916 5.25687 15.6438 5.32709 15.6944L6.20419 14.4775ZM13.0837 16.7982C14.6489 16.7982 15.8762 16.7991 16.8628 16.7034C17.863 16.6065 18.6852 16.4056 19.4263 15.961L18.6545 14.6747C18.1783 14.9605 17.602 15.1248 16.7181 15.2104C15.8206 15.2974 14.6782 15.2982 13.0837 15.2982V16.7982ZM19.3758 14.1297C19.1572 14.3354 18.9154 14.5182 18.6545 14.6747L19.4263 15.961C19.7784 15.7497 20.1062 15.5021 20.4036 15.2222L19.3758 14.1297ZM18.445 5.70174C19.4367 5.70174 20.1145 5.70296 20.6195 5.76201C21.1148 5.81993 21.3191 5.92228 21.439 6.03072L22.4452 4.91821C21.9871 4.50393 21.4158 4.34491 20.7937 4.27216C20.1811 4.20053 19.3994 4.20174 18.445 4.20174V5.70174ZM22.7468 9.47689C22.9686 8.5898 23.1538 7.85523 23.2247 7.26087C23.2973 6.65224 23.2683 6.06452 22.9472 5.52856L21.6605 6.2995C21.7351 6.42401 21.7905 6.61992 21.7353 7.08322C21.6783 7.56079 21.5233 8.18644 21.2916 9.11296L22.7468 9.47689ZM21.439 6.03072C21.5271 6.11041 21.6015 6.20112 21.6605 6.2995L22.9472 5.52856C22.8112 5.30154 22.6418 5.09605 22.4452 4.91821L21.439 6.03072ZM21.0001 11.6667H17.0001V13.1667H21.0001V11.6667ZM21.9575 8.79166L14.0001 8.79166L14.0001 10.2917L21.9575 10.2917L21.9575 8.79166ZM21.2916 9.11296C21.2707 9.19639 21.2502 9.27855 21.2299 9.35954L22.685 9.72377C22.7053 9.64261 22.7259 9.5603 22.7468 9.47689L21.2916 9.11296ZM21.2299 9.35954C20.9321 10.5491 20.7011 11.455 20.4596 12.1794L21.8825 12.6539C22.1458 11.8642 22.3909 10.8987 22.685 9.72377L21.2299 9.35954ZM20.4596 12.1794C20.1356 13.151 19.8181 13.7136 19.3758 14.1297L20.4036 15.2222C21.1062 14.5612 21.5239 13.7295 21.8825 12.6539L20.4596 12.1794ZM21.0001 13.1667H21.1711V11.6667H21.0001V13.1667Z" fill="#2D264B"/>
<path d="M10.4738 19.9473C10.4738 20.5287 10.0025 21 9.42116 21C8.83981 21 8.36853 20.5287 8.36853 19.9473C8.36853 19.366 8.83981 18.8947 9.42116 18.8947C10.0025 18.8947 10.4738 19.366 10.4738 19.9473Z" fill="#2D264B"/>
<path d="M16.7896 19.9473C16.7896 20.5287 16.3183 21 15.737 21C15.1556 21 14.6843 20.5287 14.6843 19.9473C14.6843 19.366 15.1556 18.8947 15.737 18.8947C16.3183 18.8947 16.7896 19.366 16.7896 19.9473Z" fill="#2D264B"/>
</svg>
