<svg width="32" height="32" viewBox="0 0 32 32" fill="none" xmlns="http://www.w3.org/2000/svg">
<path d="M5.58511 4.33333H27.7055C29.9526 4.33333 31.5391 6.56232 30.8285 8.72077L28.0852 17.0542C27.6372 18.4152 26.3792 19.3333 24.9624 19.3333H7.70131M5.58511 4.33333L5.51861 3.86193C5.28693 2.21977 3.89802 1 2.25982 1H1M5.58511 4.33333L7.70131 19.3333M7.70131 19.3333L8.00296 21.4713C8.23464 23.1135 9.62355 24.3333 11.2618 24.3333H25.6891M25.6891 24.3333C23.871 24.3333 22.3972 25.8257 22.3972 27.6667C22.3972 29.5077 23.871 31 25.6891 31C27.5072 31 28.981 29.5077 28.981 27.6667C28.981 25.8257 27.5072 24.3333 25.6891 24.3333ZM15.8135 27.6667C15.8135 29.5077 14.3397 31 12.5216 31C10.7035 31 9.2297 29.5077 9.2297 27.6667C9.2297 25.8257 10.7035 24.3333 12.5216 24.3333C14.3397 24.3333 15.8135 25.8257 15.8135 27.6667Z" stroke="white" stroke-width="1.5" stroke-linecap="round" stroke-linejoin="round"/>
</svg>
