<svg width="41" height="38" viewBox="0 0 41 38" fill="none" xmlns="http://www.w3.org/2000/svg">
<path d="M29.5378 22.3015L29.5378 22.3015L35.7727 16.6965L35.7743 16.6951C36.1409 16.3684 36.2674 15.8835 36.1192 15.4465C35.9534 14.9989 35.5309 14.6584 35.0061 14.5872L35.0051 14.587L26.7197 13.4454L26.716 13.4449C25.9671 13.336 25.3055 12.8847 24.9606 12.2164C24.9603 12.2159 24.9601 12.2154 24.9598 12.2149L21.2638 5.14358C21.0615 4.77295 20.6712 4.51078 20.2116 4.45837H19.6305L19.4349 4.53486L19.4261 4.53827L19.4173 4.54135L19.2814 4.58874C19.2365 4.6168 19.198 4.6482 19.1648 4.68306L19.1348 4.71464L19.0997 4.74054L18.9728 4.83433C18.8897 4.91378 18.8182 5.00758 18.7607 5.11152L15.1131 12.2143L15.1107 12.2188L15.1107 12.2188C14.7469 12.9098 14.0458 13.3664 13.2603 13.4467L4.98714 14.5866C4.47248 14.6645 4.06271 15.0038 3.9048 15.447L3.90336 15.4511C3.74493 15.8839 3.86142 16.3693 4.22107 16.7007L10.2407 22.2422L10.2436 22.2448C10.7947 22.7602 11.0545 23.5059 10.9266 24.2454L10.9251 24.2537L10.9251 24.2537L9.44228 32.0388C9.33368 32.6852 9.78229 33.3341 10.5158 33.4692C10.8187 33.5141 11.127 33.4675 11.3988 33.3387L18.7763 29.6676C18.9684 29.5684 19.175 29.5053 19.3828 29.4759L19.4176 29.471H19.4528H19.9046H19.9182L19.9181 29.4711C20.2796 29.4809 20.6367 29.5672 20.9617 29.7311C20.9624 29.7315 20.9631 29.7318 20.9638 29.7322L28.3436 33.3878L28.3486 33.3903L28.3485 33.3903C28.8089 33.6247 29.3704 33.5877 29.787 33.2985L29.7978 33.291L29.7979 33.2911C30.2187 33.0152 30.4166 32.5449 30.3311 32.0927L29.5378 22.3015ZM29.5378 22.3015L29.5335 22.3055C28.9799 22.815 28.7193 23.5594 28.8477 24.2952L28.8477 24.2952L28.8491 24.3027L30.331 32.0922L29.5378 22.3015Z" stroke="#CC1244"/>
<path d="M10.9501 24.3231L10.9501 24.3231L10.9513 24.3167C11.0816 23.5765 10.8191 22.8298 10.2629 22.3185L4.22117 16.7631C4.22086 16.7629 4.22054 16.7626 4.22023 16.7623C3.71344 16.2901 3.70435 15.5276 4.19898 15.0446L4.19916 15.0444L4.20796 15.0374L4.22332 15.023C4.43362 14.8251 4.70733 14.693 5.00336 14.6517L5.00353 14.6517L13.3433 13.486C14.1028 13.3928 14.7736 12.9404 15.1184 12.2675L15.1198 12.2647L18.7383 5.09186C18.907 4.816 19.1814 4.61079 19.502 4.51621C19.4923 8.01992 19.4916 26.4144 19.4915 29.512C19.2666 29.5612 19.0491 29.6396 18.8446 29.7456L11.4568 33.4109C10.7765 33.7149 9.97655 33.4703 9.60497 32.879C9.47642 32.6446 9.43083 32.3801 9.47308 32.1218L10.9501 24.3231Z" fill="#CC1244" stroke="#CC1244"/>
</svg>
