<svg width="41" height="39" viewBox="0 0 41 39" fill="none" xmlns="http://www.w3.org/2000/svg">
<path d="M31.8378 23.64C31.3198 24.142 31.0818 24.868 31.1998 25.58L32.9778 35.42C33.1278 36.254 32.7758 37.098 32.0778 37.58C31.3938 38.08 30.4838 38.14 29.7378 37.74L20.8798 33.12C20.5718 32.956 20.2298 32.868 19.8798 32.858H19.3378C19.1498 32.886 18.9658 32.946 18.7978 33.038L9.93775 37.68C9.49975 37.9 9.00375 37.978 8.51775 37.9C7.33375 37.676 6.54375 36.548 6.73775 35.358L8.51775 25.518C8.63575 24.8 8.39775 24.07 7.87975 23.56L0.657752 16.56C0.0537516 15.974 -0.156248 15.094 0.119752 14.3C0.387752 13.508 1.07175 12.93 1.89775 12.8L11.8378 11.358C12.5938 11.28 13.2578 10.82 13.5978 10.14L17.9778 1.16C18.0818 0.96 18.2158 0.776 18.3778 0.62L18.5578 0.48C18.6518 0.376 18.7598 0.29 18.8798 0.22L19.0978 0.14L19.4378 0H20.2798C21.0318 0.078 21.6938 0.528 22.0398 1.2L26.4778 10.14C26.7978 10.794 27.4198 11.248 28.1378 11.358L38.0778 12.8C38.9178 12.92 39.6198 13.5 39.8978 14.3C40.1598 15.102 39.9338 15.982 39.3178 16.56L31.8378 23.64Z" fill="#CC1244"/>
</svg>
