<svg width="41" height="39" viewBox="0 0 41 39" fill="none" xmlns="http://www.w3.org/2000/svg">
<path d="M31.494 23.2769L31.494 23.2768L31.4898 23.2809C30.8534 23.8976 30.5618 24.7886 30.7065 25.6618L30.7064 25.6618L30.7077 25.6689L32.4856 35.5085C32.6008 36.149 32.3307 36.7977 31.7936 37.1686L31.7935 37.1684L31.7827 37.1763C31.2552 37.562 30.5519 37.6092 29.974 37.2994L29.974 37.2993L29.969 37.2967L21.1147 32.6787C21.114 32.6783 21.1133 32.6779 21.1126 32.6775C20.7348 32.4768 20.3177 32.3703 19.894 32.3582L19.8869 32.358H19.8798H19.3378H19.3007L19.2641 32.3635C19.0222 32.3995 18.783 32.4767 18.5618 32.5971L9.70971 37.235C9.36775 37.4058 8.98189 37.4666 8.60381 37.4074C7.69162 37.231 7.08299 36.3612 7.23059 35.4425L9.00977 25.607L9.00983 25.607L9.01113 25.5991C9.15547 24.7209 8.86436 23.8277 8.23055 23.2037L8.22774 23.201L1.00592 16.2011C0.540967 15.75 0.380094 15.0739 0.592048 14.4642L0.593371 14.4603C0.801622 13.8448 1.33224 13.3962 1.97269 13.2944L11.8998 11.8542C12.8219 11.7554 13.6303 11.193 14.045 10.3636L14.045 10.3636L14.0471 10.3592L18.4241 1.38535C18.5007 1.23931 18.5961 1.1079 18.7071 0.997248L18.8647 0.874675L18.8993 0.847775L18.9287 0.81527C18.9778 0.760923 19.034 0.713589 19.0979 0.672531L19.27 0.609392L19.2791 0.606042L19.2881 0.602339L19.5367 0.5H20.2523C20.8262 0.56754 21.3286 0.913622 21.5936 1.42582L26.0286 10.3598C26.0289 10.3602 26.0291 10.3607 26.0293 10.3611C26.422 11.1626 27.1838 11.7177 28.062 11.8522L28.062 11.8522L28.066 11.8528L38.006 13.2948L38.007 13.295C38.6599 13.3882 39.2062 13.8384 39.4239 14.4598C39.6232 15.0757 39.4493 15.7509 38.9756 16.1954L38.974 16.1969L31.494 23.2769Z" stroke="#CC1244"/>
</svg>
