<svg width="800" height="800" viewBox="0 0 800 800" fill="none" xmlns="http://www.w3.org/2000/svg">
<g clip-path="url(#clip0_231_6713)">
<path fill-rule="evenodd" clip-rule="evenodd" d="M400 800C320.888 800 243.552 776.541 177.772 732.588C111.993 688.636 60.7238 626.164 30.4488 553.074C0.173728 479.983 -7.74817 399.556 7.68592 321.964C23.12 244.371 61.2168 173.099 117.158 117.158C173.099 61.2166 244.372 23.1202 321.964 7.68613C399.557 -7.74796 479.984 0.173127 553.074 30.4482C626.165 60.7232 688.636 111.992 732.588 177.772C776.541 243.552 800 320.888 800 400C800 506.087 757.858 607.828 682.843 682.843C607.828 757.857 506.087 800 400 800ZM173.52 490.2C164.918 481.504 160.094 469.765 160.094 457.534C160.094 445.302 164.918 433.563 173.52 424.867L197.067 401.454C201.072 397.413 205.847 394.218 211.11 392.058C216.373 389.899 222.016 388.819 227.705 388.882C233.393 388.945 239.011 390.151 244.224 392.427C249.438 394.704 254.141 398.005 258.054 402.134L299.654 445.294C301.637 447.386 304.026 449.053 306.675 450.192C309.324 451.331 312.177 451.919 315.061 451.919C317.944 451.919 320.797 451.331 323.446 450.192C326.095 449.053 328.483 447.386 330.467 445.294L542.467 226.76C546.409 222.602 551.151 219.284 556.407 217.005C561.664 214.727 567.328 213.535 573.057 213.502C578.786 213.468 584.463 214.593 589.746 216.81C595.03 219.026 599.81 222.289 603.8 226.4L626.667 249.52C635.059 258.181 639.751 269.767 639.751 281.827C639.751 293.886 635.059 305.473 626.667 314.133L345.214 600.147C341.286 604.212 336.586 607.453 331.39 609.679C326.193 611.904 320.604 613.07 314.951 613.107C309.298 613.144 303.694 612.052 298.469 609.896C293.243 607.739 288.501 604.56 284.52 600.547L173.52 490.2Z" fill="#5BDC58"/>
</g>
<defs>
<clipPath id="clip0_231_6713">
<rect width="800" height="800" fill="white"/>
</clipPath>
</defs>
</svg>
