<svg width="16" height="20" viewBox="0 0 16 20" fill="none" xmlns="http://www.w3.org/2000/svg">
<path d="M11.25 4.66667C11.25 6.2174 9.85769 7.58333 8 7.58333V9.08333C10.5606 9.08333 12.75 7.16602 12.75 4.66667H11.25ZM8 7.58333C6.14231 7.58333 4.75 6.2174 4.75 4.66667H3.25C3.25 7.16602 5.43941 9.08333 8 9.08333V7.58333ZM4.75 4.66667C4.75 3.11593 6.14231 1.75 8 1.75V0.25C5.43941 0.25 3.25 2.16731 3.25 4.66667H4.75ZM8 1.75C9.85769 1.75 11.25 3.11593 11.25 4.66667H12.75C12.75 2.16731 10.5606 0.25 8 0.25V1.75ZM5 11.8333H11V10.3333H5V11.8333ZM11 17.6667H5V19.1667H11V17.6667ZM5 17.6667C3.14231 17.6667 1.75 16.3007 1.75 14.75H0.25C0.25 17.2494 2.43941 19.1667 5 19.1667V17.6667ZM14.25 14.75C14.25 16.3007 12.8577 17.6667 11 17.6667V19.1667C13.5606 19.1667 15.75 17.2494 15.75 14.75H14.25ZM11 11.8333C12.8577 11.8333 14.25 13.1993 14.25 14.75H15.75C15.75 12.2506 13.5606 10.3333 11 10.3333V11.8333ZM5 10.3333C2.43941 10.3333 0.25 12.2506 0.25 14.75H1.75C1.75 13.1993 3.14231 11.8333 5 11.8333V10.3333Z" fill="#2D264B"/>
</svg>
